<?xml version="1.0" encoding="UTF-8" standalone="no"?><!DOCTYPE svg PUBLIC "-//W3C//DTD SVG 1.1//EN" "http://www.w3.org/Graphics/SVG/1.1/DTD/svg11.dtd"><svg width="100%" height="100%" viewBox="0 0 9600 7680" version="1.1" xmlns="http://www.w3.org/2000/svg" xmlns:xlink="http://www.w3.org/1999/xlink" xml:space="preserve" xmlns:serif="http://www.serif.com/" style="fill-rule:evenodd;clip-rule:evenodd;stroke-linejoin:round;stroke-miterlimit:2;"><clipPath id="_clip1"><rect id="Wordmark" x="960" y="5689.84" width="7680" height="1196.78"/></clipPath><g clip-path="url(#_clip1)"><g id="Wordmark1" serif:id="Wordmark" transform="matrix(1624.69,0,0,1624.69,8752.01,6859.62)"></g><text x="846.272px" y="6859.62px" style="font-family:'Manrope-ExtraBold', 'Manrope';font-weight:800;font-size:1624.69px;">Re<tspan x="2873.89px 3861.7px 4808.89px 5825.95px 6748.77px " y="6859.62px 6859.62px 6859.62px 6859.62px 6859.62px ">Vance</tspan>d</text></g><circle id="Mask" cx="4800" cy="2969.58" r="2176.2" style="fill:#fff;"/><clipPath id="_clip2"><circle cx="4800" cy="2969.58" r="2176.2"/></clipPath><g clip-path="url(#_clip2)"><clipPath id="_clip3"><rect id="Logo" x="2623.8" y="793.378" width="4352.41" height="4352.41"/></clipPath><g clip-path="url(#_clip3)"><g id="Logo1" serif:id="Logo"><rect id="Background" x="2623.8" y="793.378" width="4352.41" height="4352.41" style="fill:url(#_Linear4);"/><circle id="Fill" cx="4800.87" cy="2972.93" r="1957.43" style="fill:#1c1b1b;"/><g id="Shape"><path id="Arc" d="M5370.49,2121.06c-10.373,0 -19.64,6.481 -23.199,16.224l-523.228,1432.48c-7.9,21.633 -38.498,21.633 -46.398,-0l-523.228,-1432.48c-3.559,-9.743 -12.828,-16.224 -23.199,-16.224l-176.966,0c-17.399,0 -29.343,17.505 -23,33.704l648.504,1656.29c3.707,9.464 12.833,15.694 23,15.694l196.178,-0c10.165,-0 19.291,-6.23 22.998,-15.694l648.504,-1656.29c6.343,-16.199 -5.603,-33.704 -22.997,-33.704l-176.969,0Z" style="fill:url(#_Linear5);fill-rule:nonzero;"/><path id="Diamond" d="M4851.47,3051.28c-9.37,18.738 -28.522,30.575 -49.473,30.575c-20.95,0 -40.103,-11.837 -49.472,-30.575c-101.788,-203.576 -332.908,-665.817 -426.064,-852.127c-8.573,-17.146 -7.656,-37.509 2.422,-53.816c10.078,-16.307 27.881,-26.232 47.051,-26.232c195.134,-0 656.993,-0 852.127,-0c19.169,-0 36.973,9.925 47.051,26.232c10.078,16.307 10.994,36.67 2.421,53.816c-93.155,186.31 -324.275,648.551 -426.063,852.127Z" style="fill:url(#_Linear6);"/></g></g></g></g><defs><linearGradient id="_Linear4" x1="0" y1="0" x2="1" y2="0" gradientUnits="userSpaceOnUse" gradientTransform="matrix(2.66481e-13,4351.97,-4351.97,2.66481e-13,4800,793.818)"><stop offset="0" style="stop-color:#817e46;stop-opacity:1"/><stop offset="1" style="stop-color:#6e0f5b;stop-opacity:1"/></linearGradient><linearGradient id="_Linear5" x1="0" y1="0" x2="1" y2="0" gradientUnits="userSpaceOnUse" gradientTransform="matrix(0,-1705.69,1705.69,-0,4800.87,3826.75)"><stop offset="0" style="stop-color:#fff1cd;stop-opacity:1"/><stop offset="1" style="stop-color:#fff;stop-opacity:1"/></linearGradient><linearGradient id="_Linear6" x1="0" y1="0" x2="1" y2="0" gradientUnits="userSpaceOnUse" gradientTransform="matrix(6.2971,868.973,-868.973,6.2971,4794.7,2185.77)"><stop offset="0" style="stop-color:#d21dad;stop-opacity:1"/><stop offset="1" style="stop-color:#f1ff00;stop-opacity:1"/></linearGradient></defs></svg>