<?xml version="1.0" encoding="UTF-8" standalone="no"?><!DOCTYPE svg PUBLIC "-//W3C//DTD SVG 1.1//EN" "http://www.w3.org/Graphics/SVG/1.1/DTD/svg11.dtd"><svg width="100%" height="100%" viewBox="0 0 38763 9600" version="1.1" xmlns="http://www.w3.org/2000/svg" xmlns:xlink="http://www.w3.org/1999/xlink" xml:space="preserve" xmlns:serif="http://www.serif.com/" style="fill-rule:evenodd;clip-rule:evenodd;stroke-linejoin:round;stroke-miterlimit:2;"><clipPath id="_clip1"><rect id="Wordmark" x="10320.2" y="2640" width="27722.3" height="4320"/></clipPath><g clip-path="url(#_clip1)"><g id="Wordmark1" serif:id="Wordmark" transform="matrix(5864.61,0,0,5864.61,38446.8,6862.52)"></g><text x="9909.66px" y="6862.52px" style="font-family:'Manrope-ExtraBold', 'Manrope';font-weight:800;font-size:5864.61px;fill:#fff;">Re<tspan x="17228.7px 20794.4px 24213.4px 27884.7px 31215.8px " y="6862.52px 6862.52px 6862.52px 6862.52px 6862.52px ">Vance</tspan>d</text></g><circle id="Mask" cx="4800" cy="4800" r="4080" style="fill:#fff;"/><clipPath id="_clip2"><circle cx="4800" cy="4800" r="4080"/></clipPath><g clip-path="url(#_clip2)"><g id="Logo"><rect id="Background" x="720" y="720" width="8160" height="8160" style="fill:url(#_Linear3);"/><circle id="Fill" cx="4801.63" cy="4806.27" r="3669.84" style="fill:#1c1b1b;"/><g id="Shape"><path id="Arc" d="M5869.58,3209.18c-19.448,0 -36.822,12.151 -43.495,30.418l-980.959,2685.65c-14.811,40.558 -72.178,40.558 -86.989,0l-980.96,-2685.65c-6.672,-18.267 -24.05,-30.418 -43.494,-30.418l-331.781,0c-32.618,0 -55.012,32.819 -43.12,63.189l1215.83,3105.25c6.949,17.744 24.06,29.423 43.121,29.423l367.799,-0c19.057,-0 36.168,-11.679 43.116,-29.423l1215.83,-3105.25c11.891,-30.37 -10.506,-63.189 -43.116,-63.189l-331.785,0Z" style="fill:url(#_Linear4);fill-rule:nonzero;"/><path id="Diamond" d="M4896.5,4953.17c-17.566,35.131 -53.473,57.324 -92.752,57.324c-39.279,-0 -75.186,-22.193 -92.752,-57.324c-190.835,-381.669 -624.144,-1248.29 -798.794,-1597.59c-16.073,-32.146 -14.355,-70.322 4.54,-100.894c18.895,-30.573 52.272,-49.182 88.212,-49.182c365.842,0 1231.75,0 1597.59,0c35.94,-0 69.317,18.609 88.212,49.182c18.895,30.572 20.613,68.748 4.54,100.894c-174.65,349.299 -607.96,1215.92 -798.794,1597.59Z" style="fill:url(#_Linear5);"/></g></g></g><defs><linearGradient id="_Linear3" x1="0" y1="0" x2="1" y2="0" gradientUnits="userSpaceOnUse" gradientTransform="matrix(4.99605e-13,8159.18,-8159.18,4.99605e-13,4800,720.825)"><stop offset="0" style="stop-color:#817e46;stop-opacity:1"/><stop offset="1" style="stop-color:#6e0f5b;stop-opacity:1"/></linearGradient><linearGradient id="_Linear4" x1="0" y1="0" x2="1" y2="0" gradientUnits="userSpaceOnUse" gradientTransform="matrix(0,-3197.86,3197.86,-0,4801.63,6407.03)"><stop offset="0" style="stop-color:#fff1cd;stop-opacity:1"/><stop offset="1" style="stop-color:#fff;stop-opacity:1"/></linearGradient><linearGradient id="_Linear5" x1="0" y1="0" x2="1" y2="0" gradientUnits="userSpaceOnUse" gradientTransform="matrix(11.806,1629.17,-1629.17,11.806,4790.06,3330.49)"><stop offset="0" style="stop-color:#d21dad;stop-opacity:1"/><stop offset="1" style="stop-color:#f1ff00;stop-opacity:1"/></linearGradient></defs></svg>