<?xml version="1.0" encoding="UTF-8" standalone="no"?><!DOCTYPE svg PUBLIC "-//W3C//DTD SVG 1.1//EN" "http://www.w3.org/Graphics/SVG/1.1/DTD/svg11.dtd"><svg width="100%" height="100%" viewBox="0 0 38763 9600" version="1.1" xmlns="http://www.w3.org/2000/svg" xmlns:xlink="http://www.w3.org/1999/xlink" xml:space="preserve" xmlns:serif="http://www.serif.com/" style="fill-rule:evenodd;clip-rule:evenodd;stroke-linejoin:round;stroke-miterlimit:2;"><clipPath id="_clip1"><rect id="Wordmark" x="10320.2" y="2640" width="27722.3" height="4320"/></clipPath><g clip-path="url(#_clip1)"><path id="Wordmark1" serif:id="Wordmark" d="M10320.2,6862.52l0,-4222.52l1782.84,-0c41.052,-0 96.278,1.466 165.675,4.398c69.398,2.933 131.465,9.286 186.202,19.06c252.178,39.098 458.905,122.18 620.182,249.246c161.277,127.067 280.035,286.877 356.275,479.432c76.24,192.555 114.36,407.101 114.36,643.641c-0,353.831 -87.969,656.347 -263.908,907.548c-175.938,251.2 -451.574,406.124 -826.909,464.77l-351.877,23.458l-985.254,0l0,1430.96l-797.587,-0Zm2381.03,-0l-832.774,-1718.33l821.045,-158.345l914.879,1876.67l-903.15,-0Zm-1583.44,-2175.77l950.067,0c41.052,0 86.014,-1.955 134.886,-5.864c48.871,-3.91 93.833,-11.73 134.885,-23.459c107.518,-29.323 190.6,-78.683 249.246,-148.081c58.646,-69.398 99.21,-146.615 121.691,-231.652c22.481,-85.037 33.721,-165.675 33.721,-241.915c0,-76.24 -11.24,-156.879 -33.721,-241.915c-22.481,-85.037 -63.045,-162.255 -121.691,-231.652c-58.646,-69.398 -141.728,-118.759 -249.246,-148.082c-41.052,-11.729 -86.014,-19.548 -134.885,-23.458c-48.872,-3.91 -93.834,-5.865 -134.886,-5.865l-950.067,0l0,1301.94Z" style="fill:#fff;fill-rule:nonzero;"/><path d="M15721.5,6950.49c-324.508,-0 -610.408,-69.887 -857.699,-209.66c-247.291,-139.773 -440.823,-332.328 -580.596,-577.664c-139.773,-245.336 -209.66,-526.348 -209.66,-843.037c0,-346.012 68.421,-647.062 205.262,-903.15c136.841,-256.088 325.485,-454.996 565.934,-596.724c240.449,-141.728 517.063,-212.592 829.842,-212.592c332.328,0 614.807,78.195 847.436,234.585c232.63,156.389 404.658,376.312 516.086,659.768c111.427,283.456 150.525,616.761 117.292,999.916l-788.79,-0l0,-293.231c0,-322.553 -51.315,-554.694 -153.946,-696.422c-102.631,-141.728 -270.261,-212.592 -502.89,-212.592c-271.727,-0 -471.612,82.593 -599.656,247.78c-128.044,165.186 -192.066,409.056 -192.066,731.609c-0,295.186 64.022,523.417 192.066,684.693c128.044,161.277 316.2,241.916 564.468,241.916c156.39,-0 290.298,-34.211 401.726,-102.631c111.427,-68.421 196.464,-167.141 255.11,-296.163l797.587,228.72c-119.247,289.321 -307.403,514.13 -564.468,674.43c-257.066,160.299 -538.078,240.449 -843.038,240.449Zm-1049.77,-1448.56l0,-592.326l2099.53,0l-0,592.326l-2099.53,-0Z" style="fill:#fff;fill-rule:nonzero;"/><path d="M18548.2,6862.52l-1290.21,-4222.52l821.045,-0l1055.63,3471.85l1073.22,-3471.85l821.045,-0l-1290.21,4222.52l-1190.52,-0Z" style="fill:#fff;fill-rule:nonzero;"/><path d="M22084.6,6950.49c-226.765,-0 -418.831,-43.496 -576.198,-130.488c-157.367,-86.992 -276.614,-203.306 -357.741,-348.944c-81.127,-145.638 -121.691,-306.426 -121.691,-482.364c0,-146.615 22.481,-280.524 67.443,-401.726c44.962,-121.202 117.781,-228.231 218.457,-321.087c100.676,-92.856 236.05,-170.562 406.124,-233.118c117.292,-43.007 257.065,-81.127 419.319,-114.36c162.255,-33.233 346.012,-64.999 551.274,-95.3c205.261,-30.3 431.048,-64.022 677.362,-101.164l-287.366,158.344c-0,-187.667 -44.962,-325.486 -134.886,-413.455c-89.924,-87.969 -240.449,-131.953 -451.575,-131.953c-117.292,-0 -239.471,28.345 -366.538,85.036c-127.066,56.692 -216.013,157.367 -266.839,302.028l-721.347,-228.72c80.149,-261.952 230.674,-475.033 451.575,-639.242c220.9,-164.209 521.95,-246.314 903.149,-246.314c279.546,0 527.815,43.007 744.805,129.022c216.991,86.014 381.2,234.584 492.627,445.71c62.556,117.292 99.699,234.584 111.428,351.876c11.729,117.292 17.594,248.269 17.594,392.929l-0,1935.32l-697.889,-0l0,-650.972l99.699,134.886c-154.435,213.081 -321.088,367.027 -499.958,461.838c-178.871,94.811 -405.147,142.217 -678.828,142.217Zm170.073,-627.513c146.615,-0 270.261,-25.902 370.937,-77.706c100.675,-51.804 180.825,-110.939 240.449,-177.405c59.623,-66.465 100.187,-122.179 121.69,-167.141c41.052,-86.014 65,-186.201 71.842,-300.561c6.842,-114.36 10.263,-209.66 10.263,-285.9l234.584,58.646c-236.539,39.098 -428.116,71.842 -574.732,98.232c-146.615,26.391 -264.884,50.338 -354.808,71.842c-89.924,21.503 -169.096,44.962 -237.517,70.375c-78.195,31.278 -141.239,65 -189.134,101.165c-47.894,36.165 -83.081,75.751 -105.562,118.758c-22.481,43.007 -33.722,90.901 -33.722,143.683c0,72.33 18.083,134.397 54.248,186.201c36.165,51.804 87.48,91.39 153.946,118.758c66.465,27.369 145.637,41.053 237.516,41.053Z" style="fill:#fff;fill-rule:nonzero;"/><path d="M26782.1,6862.52l0,-1495.48c0,-72.331 -3.909,-164.698 -11.729,-277.103c-7.819,-112.405 -32.255,-225.299 -73.307,-338.681c-41.053,-113.383 -108.007,-208.194 -200.863,-284.434c-92.856,-76.24 -224.321,-114.36 -394.395,-114.36c-68.42,0 -141.728,10.752 -219.923,32.256c-78.195,21.503 -151.502,63.044 -219.923,124.623c-68.42,61.578 -124.623,151.991 -168.607,271.238c-43.985,119.247 -65.977,277.591 -65.977,475.033l-457.439,-216.99c-0,-250.224 50.826,-484.808 152.479,-703.753c101.654,-218.946 254.622,-395.861 458.906,-530.747c204.284,-134.886 461.838,-202.329 772.662,-202.329c248.268,-0 450.597,42.029 606.987,126.089c156.39,84.059 278.08,190.599 365.072,319.621c86.991,129.021 149.059,263.418 186.201,403.192c37.143,139.773 59.624,267.328 67.443,382.665c7.82,115.338 11.729,199.397 11.729,252.178l0,1776.98l-809.316,-0Zm-2164.04,-0l0,-3166.89l709.618,0l-0,1049.77l99.698,0l0,2117.12l-809.316,-0Z" style="fill:#fff;fill-rule:nonzero;"/><path d="M29691,6950.49c-328.418,-0 -609.919,-73.308 -844.504,-219.923c-234.584,-146.615 -414.432,-346.012 -539.544,-598.19c-125.111,-252.178 -187.667,-536.612 -187.667,-853.301c-0,-320.598 64.999,-606.986 194.998,-859.165c129.999,-252.178 313.268,-450.597 549.807,-595.257c236.539,-144.661 516.086,-216.991 838.639,-216.991c373.38,0 686.648,94.323 939.803,282.968c253.156,188.644 414.921,446.198 485.297,772.662l-797.587,211.126c-46.917,-164.209 -128.533,-292.253 -244.847,-384.132c-116.315,-91.879 -247.78,-137.819 -394.395,-137.819c-168.119,0 -305.937,40.564 -413.455,121.691c-107.518,81.127 -186.69,191.577 -237.517,331.35c-50.826,139.774 -76.239,297.629 -76.239,473.567c-0,275.637 61.089,498.981 183.269,670.032c122.179,171.051 303.493,256.577 543.942,256.577c179.848,-0 316.689,-41.053 410.522,-123.157c93.834,-82.105 164.209,-199.397 211.126,-351.877l815.181,170.074c-89.924,336.237 -259.998,595.258 -510.221,777.06c-250.223,181.803 -559.093,272.705 -926.608,272.705Z" style="fill:#fff;fill-rule:nonzero;"/><path d="M33098.3,6950.49c-324.508,-0 -610.408,-69.887 -857.699,-209.66c-247.291,-139.773 -440.823,-332.328 -580.596,-577.664c-139.773,-245.336 -209.66,-526.348 -209.66,-843.037c0,-346.012 68.421,-647.062 205.261,-903.15c136.841,-256.088 325.486,-454.996 565.935,-596.724c240.449,-141.728 517.063,-212.592 829.842,-212.592c332.328,0 614.807,78.195 847.436,234.585c232.629,156.389 404.658,376.312 516.085,659.768c111.428,283.456 150.525,616.761 117.293,999.916l-788.79,-0l-0,-293.231c-0,-322.553 -51.315,-554.694 -153.946,-696.422c-102.631,-141.728 -270.261,-212.592 -502.89,-212.592c-271.727,-0 -471.612,82.593 -599.656,247.78c-128.044,165.186 -192.066,409.056 -192.066,731.609c-0,295.186 64.022,523.417 192.066,684.693c128.044,161.277 316.2,241.916 564.468,241.916c156.39,-0 290.298,-34.211 401.726,-102.631c111.427,-68.421 196.464,-167.141 255.11,-296.163l797.587,228.72c-119.247,289.321 -307.403,514.13 -564.469,674.43c-257.065,160.299 -538.077,240.449 -843.037,240.449Zm-1049.77,-1448.56l0,-592.326l2099.53,0l-0,592.326l-2099.53,-0Z" style="fill:#fff;fill-rule:nonzero;"/><path d="M36476.3,6950.49c-291.275,-0 -546.386,-73.308 -765.331,-219.923c-218.946,-146.615 -389.508,-346.012 -511.687,-598.19c-122.18,-252.178 -183.269,-536.612 -183.269,-853.301c-0,-322.553 62.067,-609.43 186.201,-860.631c124.134,-251.2 298.606,-449.131 523.416,-593.791c224.81,-144.661 488.718,-216.991 791.722,-216.991c301.05,0 554.206,73.308 759.467,219.923c205.261,146.615 360.673,346.012 466.236,598.19c105.563,252.178 158.345,536.612 158.345,853.3c-0,316.689 -53.27,601.123 -159.811,853.301c-106.54,252.178 -265.373,451.575 -476.499,598.19c-211.126,146.615 -474.056,219.923 -788.79,219.923Zm129.021,-709.618c177.894,0 320.11,-40.075 426.651,-120.224c106.54,-80.15 183.269,-192.555 230.186,-337.215c46.916,-144.661 70.375,-312.779 70.375,-504.357c-0,-191.577 -23.459,-359.695 -70.375,-504.356c-46.917,-144.66 -121.691,-257.065 -224.322,-337.215c-102.63,-80.149 -237.028,-120.224 -403.192,-120.224c-177.893,-0 -324.019,43.496 -438.379,130.487c-114.36,86.992 -198.908,203.307 -253.644,348.945c-54.737,145.637 -82.105,306.425 -82.105,482.363c0,177.894 26.391,339.659 79.172,485.297c52.782,145.638 133.909,261.464 243.382,347.478c109.472,86.014 250.223,129.021 422.251,129.021Zm727.212,621.649l-0,-2169.91l-99.699,-0l0,-2052.61l803.452,-0l-0,4222.52l-703.753,-0Z" style="fill:#fff;fill-rule:nonzero;"/></g><circle id="Mask" cx="4800" cy="4800" r="4080" style="fill:none;"/><clipPath id="_clip2"><circle cx="4800" cy="4800" r="4080"/></clipPath><g clip-path="url(#_clip2)"><g id="Logo"><rect id="Background" x="720" y="720" width="8160" height="8160" style="fill:url(#_Linear3);"/><circle id="Fill" cx="4801.63" cy="4806.27" r="3669.84" style="fill:#1c1b1b;"/><g id="Shape"><path id="Arc" d="M5869.58,3209.18c-19.448,0 -36.822,12.151 -43.495,30.418l-980.959,2685.65c-14.811,40.558 -72.178,40.558 -86.989,0l-980.96,-2685.65c-6.672,-18.267 -24.05,-30.418 -43.494,-30.418l-331.781,0c-32.618,0 -55.012,32.819 -43.12,63.189l1215.83,3105.25c6.949,17.744 24.06,29.423 43.121,29.423l367.799,-0c19.057,-0 36.168,-11.679 43.116,-29.423l1215.83,-3105.25c11.891,-30.37 -10.506,-63.189 -43.116,-63.189l-331.785,0Z" style="fill:url(#_Linear4);fill-rule:nonzero;"/><path id="Diamond" d="M4896.5,4953.17c-17.566,35.131 -53.473,57.324 -92.752,57.324c-39.279,-0 -75.186,-22.193 -92.752,-57.324c-190.835,-381.669 -624.144,-1248.29 -798.794,-1597.59c-16.073,-32.146 -14.355,-70.322 4.54,-100.894c18.895,-30.573 52.272,-49.182 88.212,-49.182c365.842,0 1231.75,0 1597.59,0c35.94,-0 69.317,18.609 88.212,49.182c18.895,30.572 20.613,68.748 4.54,100.894c-174.65,349.299 -607.96,1215.92 -798.794,1597.59Z" style="fill:url(#_Linear5);"/></g></g></g><defs><linearGradient id="_Linear3" x1="0" y1="0" x2="1" y2="0" gradientUnits="userSpaceOnUse" gradientTransform="matrix(4.99605e-13,8159.18,-8159.18,4.99605e-13,4800,720.825)"><stop offset="0" style="stop-color:#817e46;stop-opacity:1"/><stop offset="1" style="stop-color:#6e0f5b;stop-opacity:1"/></linearGradient><linearGradient id="_Linear4" x1="0" y1="0" x2="1" y2="0" gradientUnits="userSpaceOnUse" gradientTransform="matrix(0,-3197.86,3197.86,-0,4801.63,6407.03)"><stop offset="0" style="stop-color:#fff1cd;stop-opacity:1"/><stop offset="1" style="stop-color:#fff;stop-opacity:1"/></linearGradient><linearGradient id="_Linear5" x1="0" y1="0" x2="1" y2="0" gradientUnits="userSpaceOnUse" gradientTransform="matrix(11.806,1629.17,-1629.17,11.806,4790.06,3330.49)"><stop offset="0" style="stop-color:#d21dad;stop-opacity:1"/><stop offset="1" style="stop-color:#f1ff00;stop-opacity:1"/></linearGradient></defs></svg>