<?xml version="1.0" encoding="UTF-8" standalone="no"?><!DOCTYPE svg PUBLIC "-//W3C//DTD SVG 1.1//EN" "http://www.w3.org/Graphics/SVG/1.1/DTD/svg11.dtd"><svg width="100%" height="100%" viewBox="0 0 38763 9600" version="1.1" xmlns="http://www.w3.org/2000/svg" xmlns:xlink="http://www.w3.org/1999/xlink" xml:space="preserve" xmlns:serif="http://www.serif.com/" style="fill-rule:evenodd;clip-rule:evenodd;stroke-linejoin:round;stroke-miterlimit:2;"><g id="Wordmark"><path d="M11117.9,4687.22l950.283,0c41.063,0 86.042,-1.962 134.917,-5.875c48.892,-3.904 93.867,-11.729 134.917,-23.462c107.546,-29.325 190.646,-78.7 249.308,-148.113c58.654,-69.412 99.238,-146.642 121.721,-231.704c22.483,-85.054 33.725,-165.717 33.725,-241.971c-0,-76.262 -11.242,-156.912 -33.725,-241.975c-22.483,-85.054 -63.067,-162.292 -121.721,-231.696c-58.662,-69.412 -141.762,-118.787 -249.308,-148.121c-41.05,-11.729 -86.025,-19.55 -134.917,-23.466c-48.875,-3.909 -93.854,-5.863 -134.917,-5.863l-950.283,0l0,1302.25Zm1583.8,2176.27l-832.954,-1718.73l821.229,-158.379l915.084,1877.1c-0,-0 -903.359,-0 -903.359,0.004m-2381.57,-0l0,-4223.49l1783.25,0c41.063,0 96.3,1.467 165.713,4.396c69.412,2.933 131.5,9.292 186.246,19.067c252.233,39.104 459.012,122.204 620.321,249.308c161.316,127.092 280.104,286.942 356.358,479.538c76.258,192.591 114.387,407.191 114.387,643.787c0,353.913 -87.987,656.496 -263.97,907.754c-175.98,251.259 -451.68,406.221 -827.096,464.884l-351.959,23.462l-985.483,0l0,1431.29c0,-0 -797.767,-0 -797.767,0.004" style="fill:#fff;fill-rule:nonzero;"/><path d="M14672.7,4910.13l2100.01,-0l-0,592.458l-2100.01,0l0,-592.458Zm1050,2041.35c-324.583,-0 -610.541,-69.909 -857.895,-209.713c-247.346,-139.804 -440.917,-332.4 -580.721,-577.796c-139.809,-245.387 -209.713,-526.466 -209.713,-843.225c0,-346.1 68.438,-647.208 205.304,-903.358c136.88,-256.142 325.563,-455.104 566.071,-596.862c240.504,-141.755 517.184,-212.638 830.029,-212.638c332.4,0 614.95,78.213 847.63,234.633c232.683,156.43 404.754,376.4 516.204,659.921c111.454,283.525 150.558,616.9 117.316,1000.15l-788.962,0l-0,-293.296c-0,-322.633 -51.333,-554.821 -153.983,-696.579c-102.659,-141.767 -270.321,-212.65 -503.005,-212.65c-271.795,0 -471.72,82.621 -599.8,247.838c-128.07,165.233 -192.104,409.158 -192.104,731.779c0,295.254 64.034,523.541 192.104,684.85c128.08,161.312 316.28,241.975 564.6,241.975c156.43,-0 290.363,-34.217 401.813,-102.654c111.454,-68.442 196.517,-167.184 255.171,-296.238l797.779,228.775c-119.279,289.396 -307.479,514.254 -564.6,674.583c-257.125,160.342 -538.204,240.509 -843.238,240.509" style="fill:#fff;fill-rule:nonzero;"/><path d="M18550.1,6863.49l-1290.51,-4223.49l821.242,0l1055.86,3472.65l1073.47,-3472.65l821.229,0l-1290.51,4223.49l-1190.79,-0.001l0.004,0.001Z" style="fill:#fff;fill-rule:nonzero;"/><path d="M22257.4,6323.82c146.65,-0 270.325,-25.909 371.029,-77.721c100.692,-51.817 180.867,-110.963 240.5,-177.45c59.634,-66.479 100.205,-122.204 121.717,-167.179c41.067,-86.034 65.013,-186.242 71.863,-300.634c6.837,-114.379 10.262,-209.704 10.262,-285.962l234.638,58.662c-236.596,39.1 -428.217,71.859 -574.859,98.259c-146.654,26.391 -264.946,50.346 -354.9,71.858c-89.941,21.5 -169.129,44.967 -237.566,70.388c-78.217,31.279 -141.28,65.012 -189.18,101.187c-47.904,36.175 -83.104,75.771 -105.587,118.783c-22.479,43.017 -33.725,90.921 -33.725,143.717c-0,72.346 18.083,134.425 54.258,186.242c36.175,51.812 87.496,91.408 153.975,118.787c66.488,27.375 145.679,41.063 237.571,41.063l0.004,-0Zm-170.108,627.658c-226.821,0 -418.933,-43.508 -576.329,-130.521c-157.404,-87.004 -276.684,-203.346 -357.821,-349.025c-81.154,-145.671 -121.721,-306.496 -121.721,-482.475c0,-146.641 22.483,-280.587 67.458,-401.816c44.967,-121.225 117.805,-228.288 218.505,-321.155c100.7,-92.879 236.104,-170.608 406.22,-233.179c117.317,-43.012 257.125,-81.137 419.417,-114.387c162.292,-33.238 346.083,-65.009 551.396,-95.321c205.304,-30.304 431.146,-64.033 677.521,-101.188l-287.434,158.384c0,-187.709 -44.975,-325.563 -134.92,-413.55c-89.942,-87.984 -240.509,-131.984 -451.675,-131.984c-117.321,0 -239.525,28.355 -366.63,85.055c-127.091,56.704 -216.054,157.408 -266.895,302.095l-721.513,-228.766c80.167,-262.013 230.733,-475.142 451.679,-639.388c220.954,-164.254 522.067,-246.371 903.359,-246.371c279.608,0 527.941,43.013 744.975,129.05c217.041,86.034 381.283,234.638 492.737,445.809c62.571,117.316 99.721,234.641 111.454,351.958c11.729,117.321 17.604,248.325 17.604,393.021l0,1935.77l-698.05,-0l0,-651.125l99.717,134.916c-154.471,213.129 -321.158,367.109 -500.071,461.946c-178.912,94.829 -405.237,142.25 -678.983,142.25" style="fill:#fff;fill-rule:nonzero;"/><path d="M24621.4,6863.49l0,-3167.62l709.788,-0l-0,1050l99.712,-0l0,2117.61c0,0 -809.5,0 -809.5,0.005m2164.54,-0l-0,-1495.82c-0,-72.35 -3.913,-164.738 -11.738,-277.167c-7.812,-112.429 -32.25,-225.354 -73.316,-338.762c-41.063,-113.409 -108.038,-208.238 -200.913,-284.504c-92.879,-76.25 -224.375,-114.38 -394.479,-114.38c-68.442,0 -141.771,10.75 -219.975,32.263c-78.217,21.508 -151.537,63.062 -219.979,124.65c-68.429,61.592 -124.646,152.029 -168.642,271.304c-43.996,119.271 -65.996,277.646 -65.996,475.142l-457.537,-217.046c-0,-250.279 50.837,-484.917 152.504,-703.908c101.683,-218.996 254.688,-395.955 459.021,-530.871c204.321,-134.917 461.937,-202.371 772.833,-202.371c248.321,-0 450.704,42.037 607.125,126.117c156.429,84.075 278.15,190.645 365.154,319.687c87.013,129.054 149.1,263.479 186.25,403.283c37.15,139.805 59.638,267.392 67.455,382.759c7.825,115.362 11.737,199.441 11.737,252.233l0,1777.39l-809.508,-0l0.004,-0Z" style="fill:#fff;fill-rule:nonzero;"/><path d="M29695.4,6951.48c-328.496,-0 -610.059,-73.329 -844.704,-219.971c-234.63,-146.654 -414.525,-346.096 -539.667,-598.333c-125.129,-252.234 -187.708,-536.729 -187.708,-853.492c-0,-320.671 65.02,-607.129 195.054,-859.367c130.016,-252.233 313.329,-450.695 549.925,-595.395c236.596,-144.692 516.204,-217.034 838.825,-217.034c373.475,0 686.804,94.346 940.029,283.029c253.208,188.692 415.004,446.296 485.4,772.842l-797.767,211.175c-46.929,-164.246 -128.558,-292.321 -244.904,-384.225c-116.342,-91.896 -247.837,-137.846 -394.483,-137.846c-168.154,0 -306.004,40.571 -413.55,121.713c-107.542,81.154 -186.729,191.629 -237.575,331.433c-50.838,139.808 -76.25,297.696 -76.25,473.675c-0,275.7 61.1,499.1 183.304,670.179c122.212,171.096 303.562,256.642 544.071,256.642c179.883,-0 316.758,-41.063 410.616,-123.188c93.85,-82.12 164.242,-199.437 211.171,-351.954l815.367,170.109c-89.942,336.32 -260.05,595.395 -510.333,777.237c-250.284,181.846 -559.217,272.771 -926.821,272.771" style="fill:#fff;fill-rule:nonzero;"/><path d="M32053.5,4910.13l2100.01,-0l0,592.458l-2100.01,0l-0,-592.458Zm1050.01,2041.35c-324.583,-0 -610.55,-69.909 -857.896,-209.713c-247.35,-139.804 -440.929,-332.4 -580.733,-577.796c-139.804,-245.387 -209.704,-526.466 -209.704,-843.225c-0,-346.1 68.429,-647.208 205.308,-903.358c136.867,-256.142 325.563,-455.104 566.058,-596.862c240.509,-141.755 517.18,-212.638 830.038,-212.638c332.404,0 614.95,78.213 847.633,234.633c232.684,156.43 404.75,376.4 516.196,659.921c111.454,283.525 150.563,616.9 117.325,1000.15l-788.975,0l0,-293.296c0,-322.633 -51.321,-554.821 -153.979,-696.579c-102.65,-141.767 -270.325,-212.65 -503.008,-212.65c-271.788,0 -471.721,82.621 -599.792,247.838c-128.075,165.233 -192.113,409.158 -192.113,731.779c0,295.254 64.038,523.541 192.113,684.85c128.071,161.312 316.271,241.975 564.6,241.975c156.421,-0 290.367,-34.217 401.817,-102.654c111.454,-68.442 196.508,-167.184 255.17,-296.238l797.767,228.775c-119.275,289.396 -307.479,514.254 -564.6,674.583c-257.121,160.342 -538.2,240.509 -843.225,240.509" style="fill:#fff;fill-rule:nonzero;"/><path d="M37338.8,6863.49l-0,-2170.4l-99.717,-0l0,-2053.09l803.629,0l0,4223.49l-703.912,-0Zm-727.375,-621.796c177.929,-0 320.179,-40.079 426.746,-120.246c106.566,-80.175 183.312,-192.604 230.237,-337.296c46.929,-144.696 70.392,-312.85 70.392,-504.471c-0,-191.621 -23.463,-359.775 -70.392,-504.471c-46.925,-144.7 -121.721,-257.125 -224.371,-337.295c-102.658,-80.167 -237.083,-120.25 -403.283,-120.25c-177.933,-0 -324.092,43.504 -438.479,130.52c-114.388,87.005 -198.958,203.346 -253.696,349.025c-54.754,145.667 -82.129,306.492 -82.129,482.471c-0,177.934 26.4,339.734 79.192,485.413c52.791,145.666 133.941,261.512 243.433,347.554c109.504,86.029 250.283,129.046 422.35,129.046m-129.054,709.783c-291.338,0 -546.509,-73.325 -765.504,-219.971c-218.992,-146.654 -389.596,-346.096 -511.809,-598.329c-122.204,-252.237 -183.304,-536.733 -183.304,-853.496c0,-322.625 62.075,-609.575 186.238,-860.825c124.166,-251.258 298.683,-449.233 523.541,-593.937c224.859,-144.688 488.829,-217.034 791.904,-217.034c301.121,0 554.334,73.33 759.638,219.971c205.304,146.659 360.762,346.092 466.342,598.334c105.591,252.233 158.383,536.729 158.383,853.491c-0,316.763 -53.288,601.259 -159.842,853.496c-106.566,252.233 -265.437,451.675 -476.608,598.329c-211.183,146.646 -474.167,219.971 -788.979,219.971" style="fill:#fff;fill-rule:nonzero;"/></g><g id="Logo"><path id="Background" d="M4800,720c-2253.35,0 -4080,1826.65 -4080,4080c0,2253.35 1826.65,4080 4080,4080c2253.35,0 4080,-1826.65 4080,-4080c0,-2253.35 -1826.65,-4080 -4080,-4080Z" style="fill:url(#_Linear1);fill-rule:nonzero;"/><path id="Fill" d="M4801.7,1136.5c2026.82,-0 3669.88,1643.06 3669.88,3669.88c-0,2026.81 -1643.06,3669.87 -3669.88,3669.87c-2026.82,-0 -3669.88,-1643.06 -3669.88,-3669.87c0,-2026.82 1643.06,-3669.88 3669.88,-3669.88" style="fill:#1c1b1b;"/><g id="Shape"><path id="Arc" d="M5869.55,3209.18c-19.45,0 -36.825,12.15 -43.496,30.417l-980.958,2685.65c-14.813,40.558 -72.175,40.558 -86.992,-0l-980.954,-2685.65c-6.675,-18.267 -24.05,-30.417 -43.496,-30.417l-331.783,0c-32.617,0 -55.013,32.821 -43.117,63.192l1215.83,3105.24c6.951,17.745 24.063,29.425 43.121,29.425l367.8,-0c19.059,-0 36.171,-11.68 43.117,-29.425l1215.83,-3105.24c11.896,-30.371 -10.508,-63.192 -43.112,-63.192l-331.788,0Z" style="fill:url(#_Linear2);fill-rule:nonzero;"/><path id="Diamond" d="M5602.55,3205.51l-1597.6,0c-16.087,0 -31.958,3.75 -46.354,10.942c-51.229,25.604 -72.004,87.9 -46.396,139.133l798.796,1597.58c10.033,20.07 26.313,36.341 46.379,46.379c51.225,25.617 113.513,4.846 139.129,-46.379l798.788,-1597.58c7.2,-14.404 10.95,-30.287 10.95,-46.387c-0.004,-57.271 -46.425,-103.692 -103.696,-103.688Z" style="fill:url(#_Linear3);fill-rule:nonzero;"/></g></g><defs><linearGradient id="_Linear1" x1="0" y1="0" x2="1" y2="0" gradientUnits="userSpaceOnUse" gradientTransform="matrix(0,8160,-8160,0,4800,720)"><stop offset="0" style="stop-color:#817e46;stop-opacity:1"/><stop offset="1" style="stop-color:#6e0f5b;stop-opacity:1"/></linearGradient><linearGradient id="_Linear2" x1="0" y1="0" x2="1" y2="0" gradientUnits="userSpaceOnUse" gradientTransform="matrix(0,-3197.86,-3197.86,-0,4801.61,6407.04)"><stop offset="0" style="stop-color:#fff1cd;stop-opacity:1"/><stop offset="1" style="stop-color:#fff;stop-opacity:1"/></linearGradient><linearGradient id="_Linear3" x1="0" y1="0" x2="1" y2="0" gradientUnits="userSpaceOnUse" gradientTransform="matrix(11.8005,1629.17,-1629.17,11.8005,4803.91,3332.22)"><stop offset="0" style="stop-color:#d21dad;stop-opacity:1"/><stop offset="1" style="stop-color:#f1ff00;stop-opacity:1"/></linearGradient></defs></svg>