<?xml version="1.0" encoding="UTF-8" standalone="no"?><!DOCTYPE svg PUBLIC "-//W3C//DTD SVG 1.1//EN" "http://www.w3.org/Graphics/SVG/1.1/DTD/svg11.dtd"><svg width="100%" height="100%" viewBox="0 0 9600 7680" version="1.1" xmlns="http://www.w3.org/2000/svg" xmlns:xlink="http://www.w3.org/1999/xlink" xml:space="preserve" xmlns:serif="http://www.serif.com/" style="fill-rule:evenodd;clip-rule:evenodd;stroke-linejoin:round;stroke-miterlimit:2;"><g id="Wordmark"><path d="M1181.01,6259.35l263.259,0c11.375,0 23.836,-0.543 37.376,-1.627c13.544,-1.082 26.004,-3.25 37.376,-6.5c29.793,-8.124 52.815,-21.802 69.066,-41.032c16.249,-19.229 27.492,-40.624 33.721,-64.189c6.228,-23.563 9.342,-45.909 9.342,-67.034c0,-21.127 -3.114,-43.469 -9.342,-67.034c-6.229,-23.563 -17.472,-44.96 -33.721,-64.187c-16.251,-19.23 -39.273,-32.908 -69.066,-41.034c-11.372,-3.25 -23.832,-5.416 -37.376,-6.501c-13.54,-1.083 -26.001,-1.624 -37.376,-1.624l-263.259,-0l0,360.762Zm438.764,602.894l-230.755,-476.14l227.506,-43.876l253.507,520.015c0,0 -250.258,0 -250.258,0.001m-659.77,0l0,-1170.04l494.016,0c11.376,0 26.678,0.406 45.908,1.218c19.229,0.813 36.429,2.574 51.596,5.282c69.876,10.833 127.16,33.854 171.848,69.066c44.69,35.209 77.597,79.492 98.722,132.847c21.126,53.354 31.689,112.805 31.689,178.349c0,98.045 -24.375,181.87 -73.128,251.477c-48.752,69.606 -125.129,112.536 -229.131,128.787l-97.504,6.5l-273.01,-0l0,396.511c0,0 -221.006,0 -221.006,0.001" style="fill-rule:nonzero;"/><path d="M2165.79,6321.1l581.768,-0l0,164.129l-581.768,0l0,-164.129Zm290.883,565.518c-89.92,-0 -169.139,-19.367 -237.664,-58.097c-68.522,-38.73 -122.148,-92.085 -160.878,-160.068c-38.731,-67.98 -58.097,-145.847 -58.097,-233.599c0,-95.881 18.96,-179.297 56.876,-250.259c37.92,-70.959 90.191,-126.078 156.819,-165.35c66.627,-39.27 143.276,-58.907 229.944,-58.907c92.086,0 170.361,21.668 234.82,65.001c64.461,43.336 112.13,104.275 143.005,182.819c30.876,78.545 41.709,170.9 32.5,277.071l-218.567,0l-0,-81.252c-0,-89.379 -14.221,-153.702 -42.658,-192.974c-28.44,-39.274 -74.888,-58.911 -139.348,-58.911c-75.296,0 -130.682,22.889 -166.164,68.659c-35.479,45.775 -53.218,113.35 -53.218,202.726c-0,81.794 17.739,145.037 53.218,189.725c35.482,44.688 87.62,67.034 156.412,67.034c43.336,0 80.44,-9.479 111.315,-28.438c30.876,-18.961 54.441,-46.315 70.69,-82.067l221.01,63.378c-33.044,80.171 -85.181,142.464 -156.412,186.88c-71.231,44.42 -149.099,66.629 -233.603,66.629" style="fill-rule:nonzero;"/><path d="M3239.95,6862.25l-357.513,-1170.04l227.51,-0l292.507,962.031l297.386,-962.031l227.506,-0l-357.511,1170.04l-329.887,-0l0.002,-0Z" style="fill-rule:nonzero;"/><path d="M4266.99,6712.74c40.627,-0 74.888,-7.178 102.787,-21.531c27.894,-14.355 50.105,-30.74 66.626,-49.159c16.52,-18.417 27.759,-33.855 33.719,-46.314c11.377,-23.834 18.01,-51.595 19.908,-83.285c1.894,-31.687 2.843,-58.095 2.843,-79.221l65.002,16.252c-65.544,10.832 -118.629,19.907 -159.254,27.22c-40.628,7.312 -73.398,13.948 -98.318,19.907c-24.917,5.956 -46.854,12.457 -65.814,19.5c-21.668,8.665 -39.138,18.01 -52.408,28.032c-13.271,10.022 -23.023,20.991 -29.251,32.907c-6.228,11.917 -9.343,25.188 -9.343,39.814c0,20.042 5.01,37.24 15.031,51.594c10.022,14.354 24.239,25.323 42.656,32.908c18.419,7.584 40.358,11.376 65.815,11.376l0.001,-0Zm-47.125,173.881c-62.837,-0 -116.058,-12.053 -159.662,-36.159c-43.606,-24.102 -76.65,-56.333 -99.127,-96.69c-22.482,-40.356 -33.721,-84.909 -33.721,-133.661c0,-40.624 6.229,-77.732 18.688,-111.316c12.458,-33.583 32.636,-63.243 60.533,-88.97c27.897,-25.73 65.408,-47.263 112.536,-64.597c32.5,-11.916 71.231,-22.478 116.191,-31.689c44.96,-9.208 95.876,-18.01 152.754,-26.407c56.876,-8.395 119.441,-17.74 187.695,-28.032l-79.628,43.877c-0,-52.001 -12.46,-90.191 -37.378,-114.567c-24.916,-24.374 -66.628,-36.563 -125.128,-36.563c-32.501,-0 -66.356,7.855 -101.568,23.563c-35.208,15.708 -59.853,43.607 -73.938,83.69l-199.882,-63.376c22.209,-72.586 63.921,-131.629 125.13,-177.13c61.211,-45.504 144.628,-68.253 250.258,-68.253c77.46,0 146.257,11.916 206.382,35.751c60.127,23.834 105.627,65.002 136.503,123.503c17.334,32.5 27.626,65.003 30.877,97.504c3.249,32.501 4.876,68.793 4.876,108.879l0,536.268l-193.381,-0l-0,-180.382l27.624,37.376c-42.793,59.043 -88.97,101.7 -138.535,127.973c-49.564,26.271 -112.263,39.408 -188.099,39.408" style="fill-rule:nonzero;"/><path d="M4921.89,6862.25l-0,-877.529l196.633,0l0,290.883l27.624,-0l-0,586.645c-0,-0 -224.257,-0 -224.257,0.001m599.644,-0l0,-414.388c0,-20.043 -1.083,-45.637 -3.251,-76.784c-2.164,-31.146 -8.934,-62.43 -20.311,-93.848c-11.376,-31.417 -29.93,-57.688 -55.659,-78.816c-25.731,-21.124 -62.159,-31.687 -109.283,-31.687c-18.961,0 -39.275,2.978 -60.94,8.938c-21.669,5.958 -41.981,17.47 -60.941,34.532c-18.957,17.063 -34.531,42.117 -46.719,75.16c-12.189,33.041 -18.283,76.916 -18.283,131.629l-126.753,-60.129c0,-69.335 14.084,-134.337 42.249,-195.004c28.169,-60.669 70.556,-109.692 127.163,-147.068c56.603,-37.376 127.971,-56.063 214.099,-56.063c68.793,-0 124.859,11.645 168.193,34.938c43.335,23.291 77.056,52.815 101.159,88.563c24.105,35.752 41.305,72.992 51.597,111.722c10.292,38.731 16.521,74.076 18.687,106.037c2.168,31.959 3.251,55.251 3.251,69.876l0,492.392l-224.259,-0l0.001,-0Z" style="fill-rule:nonzero;"/><path d="M6327.55,6886.62c-91.004,-0 -169.006,-20.315 -234.01,-60.939c-65,-40.628 -114.836,-95.88 -149.504,-165.757c-34.665,-69.877 -52.002,-148.691 -52.002,-236.444c0,-88.836 18.013,-168.194 54.037,-238.072c36.018,-69.876 86.802,-124.857 152.346,-164.943c65.544,-40.084 143.005,-60.125 232.381,-60.125c103.464,-0 190.266,26.137 260.417,78.408c70.147,52.273 114.969,123.638 134.471,214.101l-221.006,58.502c-13.001,-45.501 -35.615,-80.982 -67.846,-106.442c-32.231,-25.458 -68.659,-38.188 -109.284,-38.188c-46.584,0 -84.773,11.24 -114.567,33.719c-29.792,22.482 -51.73,53.087 -65.815,91.817c-14.084,38.731 -21.124,82.471 -21.124,131.223c-0,76.377 16.927,138.266 50.781,185.66c33.857,47.399 84.096,71.098 150.725,71.098c49.833,0 87.752,-11.375 113.753,-34.127c26,-22.75 45.5,-55.25 58.501,-97.502l225.882,47.125c-24.916,93.172 -72.042,164.944 -141.378,215.319c-69.336,50.377 -154.921,75.567 -256.758,75.567" style="fill-rule:nonzero;"/><path d="M6980.81,6321.1l581.769,-0l0,164.129l-581.769,0l-0,-164.129Zm290.886,565.518c-89.92,-0 -169.141,-19.367 -237.664,-58.097c-68.523,-38.73 -122.151,-92.085 -160.881,-160.068c-38.73,-67.98 -58.095,-145.847 -58.095,-233.599c0,-95.881 18.957,-179.297 56.877,-250.259c37.917,-70.959 90.191,-126.078 156.816,-165.35c66.628,-39.27 143.275,-58.907 229.946,-58.907c92.087,0 170.361,21.668 234.821,65.001c64.461,43.336 112.129,104.275 143.003,182.819c30.876,78.545 41.71,170.9 32.502,277.071l-218.57,0l-0,-81.252c-0,-89.379 -14.218,-153.702 -42.657,-192.974c-28.438,-39.274 -74.889,-58.911 -139.349,-58.911c-75.294,0 -130.682,22.889 -166.161,68.659c-35.481,45.775 -53.222,113.35 -53.222,202.726c0,81.794 17.741,145.037 53.222,189.725c35.479,44.688 87.616,67.034 156.411,67.034c43.334,0 80.441,-9.479 111.316,-28.438c30.876,-18.961 54.439,-46.315 70.69,-82.067l221.007,63.378c-33.043,80.171 -85.182,142.464 -156.412,186.88c-71.231,44.42 -149.098,66.629 -233.6,66.629" style="fill-rule:nonzero;"/><path d="M8444.99,6862.25l0,-601.269l-27.624,0l-0,-568.769l222.63,-0l0,1170.04l-195.006,-0Zm-201.505,-172.257c49.292,0 88.699,-11.103 118.222,-33.312c29.522,-22.211 50.783,-53.357 63.783,-93.441c13,-40.086 19.5,-86.67 19.5,-139.754c0,-53.085 -6.5,-99.669 -19.5,-139.755c-13,-40.086 -33.721,-71.231 -62.158,-93.441c-28.44,-22.209 -65.68,-33.313 -111.722,-33.313c-49.293,-0 -89.784,12.052 -121.473,36.158c-31.689,24.103 -55.117,56.333 -70.281,96.691c-15.169,40.354 -22.753,84.908 -22.753,133.66c0,49.293 7.314,94.116 21.939,134.474c14.625,40.354 37.106,72.447 67.438,96.283c30.336,23.833 69.337,35.75 117.005,35.75m-35.752,196.632c-80.71,0 -151.4,-20.313 -212.069,-60.939c-60.668,-40.627 -107.93,-95.879 -141.787,-165.755c-33.854,-69.878 -50.781,-148.692 -50.781,-236.445c0,-89.378 17.197,-168.872 51.594,-238.476c34.398,-69.606 82.744,-124.452 145.037,-164.539c62.293,-40.083 135.421,-60.125 219.382,-60.125c83.42,-0 153.568,20.314 210.444,60.939c56.875,40.629 99.942,95.878 129.191,165.757c29.252,69.876 43.877,148.69 43.877,236.444c0,87.753 -14.762,166.567 -44.281,236.445c-29.522,69.876 -73.535,125.128 -132.036,165.755c-58.504,40.626 -131.359,60.939 -218.571,60.939" style="fill-rule:nonzero;"/></g><g id="Logo"><path id="Background" d="M4799.95,793.288c-1201.92,-0 -2176.25,974.325 -2176.25,2176.25c-0,1201.92 974.325,2176.25 2176.25,2176.25c1201.92,-0 2176.25,-974.325 2176.25,-2176.25c-0,-1201.92 -974.325,-2176.25 -2176.25,-2176.25Z" style="fill:url(#_Linear1);fill-rule:nonzero;"/><path id="Fill" d="M4800.86,1015.45c1081.09,0 1957.49,876.399 1957.49,1957.49c0,1081.09 -876.398,1957.49 -1957.49,1957.49c-1081.09,-0 -1957.49,-876.399 -1957.49,-1957.49c-0,-1081.1 876.4,-1957.49 1957.49,-1957.49" style="fill:#1c1b1b;"/><g id="Shape"><path id="Arc" d="M5370.45,2121c-10.374,-0 -19.642,6.48 -23.2,16.224l-523.238,1432.51c-7.901,21.633 -38.498,21.633 -46.401,-0l-523.236,-1432.51c-3.56,-9.744 -12.828,-16.224 -23.2,-16.224l-176.972,-0c-17.397,-0 -29.343,17.506 -22.998,33.706l648.517,1656.32c3.707,9.465 12.835,15.695 23,15.695l196.183,-0c10.166,-0 19.293,-6.23 22.998,-15.695l648.517,-1656.32c6.345,-16.2 -5.605,-33.706 -22.996,-33.706l-176.974,-0Z" style="fill:url(#_Linear2);fill-rule:nonzero;"/><path id="Diamond" d="M5228.03,2119.05l-852.149,-0c-8.581,-0 -17.047,2 -24.725,5.836c-27.326,13.657 -38.407,46.885 -24.748,74.213l426.074,852.142c5.351,10.706 14.035,19.385 24.738,24.738c27.323,13.664 60.547,2.585 74.211,-24.738l426.069,-852.142c3.84,-7.683 5.84,-16.155 5.84,-24.743c-0.002,-30.548 -24.762,-55.309 -55.31,-55.306Z" style="fill:url(#_Linear3);fill-rule:nonzero;"/></g></g><defs><linearGradient id="_Linear1" x1="0" y1="0" x2="1" y2="0" gradientUnits="userSpaceOnUse" gradientTransform="matrix(0,4352.5,-4352.5,0,4799.95,793.288)"><stop offset="0" style="stop-color:#817e46;stop-opacity:1"/><stop offset="1" style="stop-color:#6e0f5b;stop-opacity:1"/></linearGradient><linearGradient id="_Linear2" x1="0" y1="0" x2="1" y2="0" gradientUnits="userSpaceOnUse" gradientTransform="matrix(0,-1705.72,-1705.72,-0,4800.81,3826.72)"><stop offset="0" style="stop-color:#fff1cd;stop-opacity:1"/><stop offset="1" style="stop-color:#fff;stop-opacity:1"/></linearGradient><linearGradient id="_Linear3" x1="0" y1="0" x2="1" y2="0" gradientUnits="userSpaceOnUse" gradientTransform="matrix(6.29434,868.992,-868.992,6.29434,4802.04,2186.63)"><stop offset="0" style="stop-color:#d21dad;stop-opacity:1"/><stop offset="1" style="stop-color:#f1ff00;stop-opacity:1"/></linearGradient></defs></svg>