<?xml version="1.0" encoding="UTF-8" standalone="no"?><!DOCTYPE svg PUBLIC "-//W3C//DTD SVG 1.1//EN" "http://www.w3.org/Graphics/SVG/1.1/DTD/svg11.dtd"><svg width="100%" height="100%" viewBox="0 0 37943 9600" version="1.1" xmlns="http://www.w3.org/2000/svg" xmlns:xlink="http://www.w3.org/1999/xlink" xml:space="preserve" xmlns:serif="http://www.serif.com/" style="fill-rule:evenodd;clip-rule:evenodd;stroke-linejoin:round;stroke-miterlimit:2;"><clipPath id="_clip1"><rect id="Wordmark" x="10320" y="2760" width="26182.2" height="4080"/></clipPath><g clip-path="url(#_clip1)"><path id="Wordmark1" serif:id="Wordmark" d="M10320,6747.93l-0,-3987.93l1683.79,-0c38.772,-0 90.929,1.385 156.471,4.154c65.542,2.769 124.161,8.77 175.857,18.001c238.168,36.925 433.411,115.392 585.728,235.399c152.316,120.007 264.477,270.939 336.481,452.797c72.005,181.857 108.007,384.484 108.007,607.883c-0,334.174 -83.082,619.883 -249.246,857.128c-166.164,237.245 -426.487,383.562 -780.97,438.95l-332.328,22.155l-930.518,0l0,1351.47l-753.276,0Zm2248.75,0l-786.509,-1622.87l775.432,-149.548l864.052,1772.41l-852.975,0Zm-1495.48,-2054.89l897.285,-0c38.772,-0 81.236,-1.846 127.393,-5.539c46.156,-3.692 88.62,-11.078 127.392,-22.155c101.545,-27.694 180.011,-74.312 235.399,-139.855c55.388,-65.542 93.698,-138.47 114.93,-218.782c21.232,-80.313 31.848,-156.471 31.848,-228.475c-0,-72.005 -10.616,-148.163 -31.848,-228.476c-21.232,-80.312 -59.542,-153.24 -114.93,-218.782c-55.388,-65.543 -133.854,-112.161 -235.399,-139.855c-38.772,-11.077 -81.236,-18.463 -127.392,-22.155c-46.157,-3.693 -88.621,-5.539 -127.393,-5.539l-897.285,0l0,1229.61Z" style="fill:#fff;fill-rule:nonzero;"/><path d="M15421.2,6831.02c-306.48,0 -576.496,-66.004 -810.049,-198.012c-233.552,-132.008 -416.332,-313.865 -548.34,-545.571c-132.008,-231.706 -198.012,-497.107 -198.012,-796.202c-0,-326.789 64.619,-611.114 193.857,-852.975c129.239,-241.861 307.404,-429.718 534.494,-563.572c227.091,-133.855 488.338,-200.782 783.74,-200.782c313.865,0 580.65,73.851 800.356,221.552c219.706,147.701 382.177,355.406 487.414,623.115c105.237,267.708 142.163,582.497 110.776,944.365l-744.968,-0l-0,-276.94c-0,-304.634 -48.465,-523.878 -145.393,-657.732c-96.929,-133.855 -255.247,-200.782 -474.952,-200.782c-256.631,0 -445.412,78.005 -566.342,234.014c-120.931,156.01 -181.396,386.332 -181.396,690.965c0,278.786 60.465,494.338 181.396,646.655c120.93,152.317 298.633,228.475 533.109,228.475c147.701,0 274.17,-32.31 379.407,-96.929c105.238,-64.619 185.55,-157.856 240.938,-279.709l753.276,216.013c-112.622,273.247 -290.325,485.568 -533.109,636.962c-242.784,151.393 -508.184,227.09 -796.202,227.09Zm-991.444,-1368.08l-0,-559.419l1982.89,0l-0,559.419l-1982.89,-0Z" style="fill:#fff;fill-rule:nonzero;"/><path d="M18090.9,6747.93l-1218.54,-3987.93l775.431,-0l996.984,3278.97l1013.6,-3278.97l775.432,-0l-1218.54,3987.93l-1124.38,0Z" style="fill:#fff;fill-rule:nonzero;"/><path d="M21430.8,6831.02c-214.167,0 -395.562,-41.079 -544.187,-123.238c-148.624,-82.159 -261.246,-192.012 -337.866,-329.558c-76.62,-137.547 -114.93,-289.402 -114.93,-455.566c-0,-138.47 21.232,-264.939 63.696,-379.408c42.464,-114.468 111.238,-215.551 206.32,-303.249c95.083,-87.698 222.937,-161.087 383.562,-220.167c110.776,-40.618 242.784,-76.62 396.024,-108.007c153.24,-31.386 326.789,-61.388 520.647,-90.005c193.858,-28.617 407.101,-60.465 639.731,-95.544l-271.401,149.547c-0,-177.241 -42.465,-307.403 -127.393,-390.485c-84.928,-83.082 -227.09,-124.623 -426.487,-124.623c-110.776,0 -226.168,26.771 -346.175,80.313c-120.007,53.541 -204.012,148.624 -252.015,285.248l-681.272,-216.013c75.697,-247.4 217.859,-448.643 426.487,-603.729c208.628,-155.086 492.953,-232.63 852.975,-232.63c264.016,0 498.492,40.618 703.427,121.854c204.936,81.236 360.022,221.552 465.259,420.948c59.08,110.776 94.16,221.552 105.237,332.328c11.078,110.776 16.616,234.476 16.616,371.1l0,1827.8l-659.116,0l-0,-614.806l94.159,127.392c-145.855,201.243 -303.249,346.637 -472.182,436.18c-168.933,89.544 -382.639,134.316 -641.116,134.316Zm160.625,-592.651c138.47,0 255.247,-24.463 350.329,-73.389c95.083,-48.926 170.78,-104.776 227.091,-167.549c56.311,-62.773 94.621,-115.391 114.93,-157.855c38.771,-81.236 61.388,-175.857 67.85,-283.864c6.462,-108.006 9.693,-198.012 9.693,-270.016l221.552,55.388c-223.398,36.925 -404.332,67.85 -542.802,92.775c-138.47,24.924 -250.169,47.541 -335.097,67.85c-84.929,20.309 -159.702,42.464 -224.322,66.466c-73.85,29.54 -133.392,61.388 -178.626,95.544c-45.233,34.156 -78.466,71.543 -99.698,112.161c-21.232,40.617 -31.848,85.851 -31.848,135.7c-0,68.312 17.078,126.931 51.234,175.857c34.156,48.926 82.62,86.313 145.393,112.16c62.773,25.848 137.547,38.772 224.321,38.772Z" style="fill:#fff;fill-rule:nonzero;"/><path d="M25867.4,6747.93l0,-1412.39c0,-68.312 -3.693,-155.548 -11.078,-261.708c-7.385,-106.16 -30.463,-212.782 -69.235,-319.865c-38.771,-107.084 -102.006,-196.628 -189.703,-268.632c-87.698,-72.004 -211.859,-108.007 -372.484,-108.007c-64.62,0 -133.855,10.155 -207.705,30.464c-73.851,20.309 -143.086,59.542 -207.705,117.699c-64.619,58.158 -117.699,143.547 -159.24,256.17c-41.541,112.622 -62.312,262.169 -62.312,448.642l-432.026,-204.935c-0,-236.322 48.003,-457.874 144.009,-664.656c96.005,-206.782 240.476,-373.869 433.41,-501.261c192.935,-127.392 436.181,-191.088 729.737,-191.088c234.476,-0 425.564,39.694 573.265,119.084c147.702,79.389 262.632,180.011 344.79,301.864c82.159,121.854 140.778,248.784 175.857,380.792c35.079,132.008 56.311,252.477 63.696,361.407c7.385,108.929 11.078,188.319 11.078,238.168l-0,1678.26l-764.354,0Zm-2043.82,0l0,-2990.95l670.195,0l-0,991.445l94.159,-0l0,1999.51l-764.354,0Z" style="fill:#fff;fill-rule:nonzero;"/><path d="M28614.6,6831.02c-310.173,0 -576.035,-69.235 -797.587,-207.705c-221.552,-138.47 -391.408,-326.789 -509.569,-564.957c-118.161,-238.168 -177.241,-506.8 -177.241,-805.895c-0,-302.787 61.388,-573.265 184.165,-811.433c122.776,-238.169 295.864,-425.565 519.262,-562.188c223.398,-136.624 487.414,-204.936 792.048,-204.936c352.636,0 648.5,89.083 887.592,267.247c239.091,178.165 391.869,421.41 458.335,729.737l-753.276,199.396c-44.311,-155.086 -121.392,-276.016 -231.245,-362.791c-109.853,-86.774 -234.014,-130.162 -372.484,-130.162c-158.779,0 -288.941,38.31 -390.485,114.931c-101.545,76.62 -176.319,180.934 -224.321,312.942c-48.003,132.007 -72.005,281.093 -72.005,447.257c0,260.324 57.696,471.26 173.088,632.808c115.391,161.548 286.632,242.322 513.723,242.322c169.856,0 299.095,-38.771 387.716,-116.315c88.62,-77.543 155.086,-188.319 199.396,-332.327l769.893,160.625c-84.928,317.557 -245.553,562.188 -481.875,733.89c-236.322,171.703 -528.032,257.554 -875.13,257.554Z" style="fill:#fff;fill-rule:nonzero;"/><path d="M31832.7,6831.02c-306.48,0 -576.497,-66.004 -810.049,-198.012c-233.553,-132.008 -416.333,-313.865 -548.341,-545.571c-132.008,-231.706 -198.012,-497.107 -198.012,-796.202c-0,-326.789 64.619,-611.114 193.858,-852.975c129.238,-241.861 307.403,-429.718 534.494,-563.572c227.09,-133.855 488.337,-200.782 783.739,-200.782c313.865,0 580.651,73.851 800.356,221.552c219.706,147.701 382.177,355.406 487.414,623.115c105.237,267.708 142.163,582.497 110.776,944.365l-744.968,-0l0,-276.94c0,-304.634 -48.464,-523.878 -145.393,-657.732c-96.929,-133.855 -255.246,-200.782 -474.952,-200.782c-256.631,0 -445.412,78.005 -566.342,234.014c-120.93,156.01 -181.396,386.332 -181.396,690.965c0,278.786 60.466,494.338 181.396,646.655c120.93,152.317 298.633,228.475 533.109,228.475c147.701,0 274.171,-32.31 379.408,-96.929c105.237,-64.619 185.549,-157.856 240.937,-279.709l753.277,216.013c-112.623,273.247 -290.326,485.568 -533.11,636.962c-242.783,151.393 -508.184,227.09 -796.201,227.09Zm-991.445,-1368.08l0,-559.419l1982.89,0l0,559.419l-1982.89,-0Z" style="fill:#fff;fill-rule:nonzero;"/><path d="M35023,6831.02c-275.093,0 -516.031,-69.235 -722.813,-207.705c-206.781,-138.47 -367.868,-326.789 -483.26,-564.957c-115.391,-238.168 -173.087,-506.8 -173.087,-805.895c-0,-304.633 58.619,-575.573 175.857,-812.818c117.238,-237.245 282.017,-424.18 494.337,-560.803c212.321,-136.624 461.567,-204.936 747.738,-204.936c284.325,0 523.416,69.235 717.274,207.705c193.858,138.47 340.636,326.789 440.334,564.957c99.698,238.169 149.548,506.8 149.548,805.895c-0,299.095 -50.311,567.727 -150.933,805.895c-100.621,238.168 -250.63,426.487 -450.027,564.957c-199.396,138.47 -447.719,207.705 -744.968,207.705Zm121.854,-670.194c168.01,-0 302.326,-37.849 402.947,-113.545c100.622,-75.697 173.087,-181.858 217.398,-318.481c44.31,-136.624 66.465,-295.403 66.465,-476.337c0,-180.934 -22.155,-339.713 -66.465,-476.336c-44.311,-136.624 -114.93,-242.784 -211.859,-318.481c-96.929,-75.697 -223.86,-113.545 -380.792,-113.545c-168.01,-0 -306.019,41.079 -414.025,123.238c-108.007,82.159 -187.858,192.012 -239.553,329.558c-51.696,137.547 -77.543,289.402 -77.543,455.566c-0,168.01 24.924,320.789 74.773,458.336c49.849,137.546 126.47,246.938 229.86,328.173c103.391,81.236 236.322,121.854 398.794,121.854Zm686.81,587.112l0,-2049.35l-94.159,-0l-0,-1938.58l758.815,-0l-0,3987.93l-664.656,0Z" style="fill:#fff;fill-rule:nonzero;"/></g><g id="Logo"><g id="Ring"><circle id="Ring-Background" serif:id="Ring Background" cx="4800" cy="4800" r="4080" style="fill:#1b1b1b;"/><path id="Ring1" serif:id="Ring" d="M4800,720c2251.81,0 4080,1828.19 4080,4080c0,2251.81 -1828.19,4080 -4080,4080c-2251.81,0 -4080,-1828.19 -4080,-4080c0,-2251.81 1828.19,-4080 4080,-4080Zm0,367.2c2049.15,-0 3712.8,1663.65 3712.8,3712.8c0,2049.15 -1663.65,3712.8 -3712.8,3712.8c-2049.15,0 -3712.8,-1663.65 -3712.8,-3712.8c-0,-2049.15 1663.65,-3712.8 3712.8,-3712.8Z" style="fill:url(#_Linear2);"/></g><g id="Shape"><path id="V-Shape" serif:id="V Shape" d="M6215.14,3472.7c15.113,-34.494 11.803,-74.286 -8.802,-105.809c-20.605,-31.523 -55.724,-50.523 -93.384,-50.523c-52.509,-0 -106.435,-0 -144.484,-0c-31.622,0 -60.251,18.698 -72.964,47.651c-127.17,289.641 -798.382,1818.38 -1022.55,2328.94c-12.712,28.954 -41.342,47.652 -72.964,47.652c-31.622,0 -60.252,-18.698 -72.965,-47.652c-224.168,-510.56 -895.379,-2039.3 -1022.55,-2328.94c-12.713,-28.954 -41.343,-47.651 -72.964,-47.651c-38.047,-0 -91.969,-0 -144.474,-0c-37.66,-0 -72.778,19 -93.383,50.523c-20.605,31.523 -23.915,71.315 -8.802,105.809c240.274,548.416 1039.09,2371.69 1202.27,2744.15c17.779,40.578 57.883,66.792 102.186,66.792c64.187,0 157.168,0 221.356,0c44.302,0 84.407,-26.214 102.185,-66.792c163.182,-372.454 962.009,-2195.73 1202.29,-2744.15Z" style="fill:#fff;"/><path id="Diamond" d="M4882.81,4752.19c-17.082,29.587 -48.65,47.813 -82.814,47.813c-34.164,-0 -65.732,-18.226 -82.814,-47.813c-173.371,-300.288 -572.788,-992.097 -746.159,-1292.39c-17.082,-29.586 -17.082,-66.038 -0,-95.625c17.082,-29.586 48.65,-47.813 82.814,-47.812c346.743,-0 1145.58,-0 1492.32,-0c34.164,-0.001 65.732,18.226 82.814,47.812c17.082,29.587 17.082,66.039 0,95.625c-173.371,300.289 -572.788,992.098 -746.159,1292.39Z" style="fill:url(#_Linear3);"/></g></g><defs><linearGradient id="_Linear2" x1="0" y1="0" x2="1" y2="0" gradientUnits="userSpaceOnUse" gradientTransform="matrix(4.99656e-13,8160,-8160,4.99656e-13,4800.01,720)"><stop offset="0" style="stop-color:#f04e98;stop-opacity:1"/><stop offset="0.5" style="stop-color:#5f65d4;stop-opacity:1"/><stop offset="1" style="stop-color:#4e98f0;stop-opacity:1"/></linearGradient><linearGradient id="_Linear3" x1="0" y1="0" x2="1" y2="0" gradientUnits="userSpaceOnUse" gradientTransform="matrix(1.80698e-13,2951.03,-2881.86,1.76463e-13,4800,3316.36)"><stop offset="0" style="stop-color:#f04e98;stop-opacity:1"/><stop offset="0.5" style="stop-color:#5f65d4;stop-opacity:1"/><stop offset="1" style="stop-color:#4e98f0;stop-opacity:1"/></linearGradient></defs></svg>