<?xml version="1.0" encoding="UTF-8" standalone="no"?><!DOCTYPE svg PUBLIC "-//W3C//DTD SVG 1.1//EN" "http://www.w3.org/Graphics/SVG/1.1/DTD/svg11.dtd"><svg width="100%" height="100%" viewBox="0 0 9600 7680" version="1.1" xmlns="http://www.w3.org/2000/svg" xmlns:xlink="http://www.w3.org/1999/xlink" xml:space="preserve" xmlns:serif="http://www.serif.com/" style="fill-rule:evenodd;clip-rule:evenodd;stroke-linejoin:round;stroke-miterlimit:2;"><clipPath id="_clip1"><rect id="Wordmark" x="960" y="5689.84" width="7680" height="1196.78"/></clipPath><g clip-path="url(#_clip1)"><path id="Wordmark1" serif:id="Wordmark" d="M960,6859.62l-0,-1169.78l493.906,0c11.373,0 26.672,0.406 45.897,1.219c19.226,0.812 36.42,2.572 51.584,5.28c69.862,10.831 127.132,33.847 171.811,69.049c44.679,35.202 77.579,79.475 98.7,132.819c21.121,53.344 31.682,112.78 31.682,178.309c-0,98.023 -24.371,181.83 -73.111,251.421c-48.741,69.591 -125.102,112.51 -229.082,128.757l-97.481,6.499l-272.948,-0l-0,396.424l-220.958,0Zm659.624,0l-230.706,-476.034l227.457,-43.867l253.452,519.901l-250.203,0Zm-438.666,-602.76l263.2,-0c11.373,-0 23.828,-0.542 37.368,-1.625c13.539,-1.083 25.995,-3.249 37.367,-6.499c29.786,-8.123 52.803,-21.797 69.05,-41.023c16.247,-19.225 27.484,-40.617 33.712,-64.175c6.228,-23.558 9.342,-45.898 9.342,-67.019c0,-21.121 -3.114,-43.46 -9.342,-67.018c-6.228,-23.558 -17.465,-44.95 -33.712,-64.175c-16.247,-19.226 -39.264,-32.9 -69.05,-41.024c-11.372,-3.249 -23.828,-5.416 -37.367,-6.499c-13.54,-1.083 -25.995,-1.624 -37.368,-1.624l-263.2,-0l-0,360.681Z" style="fill-rule:nonzero;"/><path d="M2456.34,6883.99c-89.9,0 -169.103,-19.361 -237.611,-58.082c-68.508,-38.722 -122.123,-92.066 -160.845,-160.032c-38.721,-67.967 -58.082,-145.816 -58.082,-233.55c-0,-95.856 18.954,-179.257 56.864,-250.202c37.909,-70.945 90.17,-126.049 156.783,-165.312c66.612,-39.263 143.243,-58.895 229.893,-58.895c92.066,-0 170.322,21.662 234.768,64.988c64.446,43.325 112.104,104.25 142.973,182.777c30.869,78.527 41.7,170.863 32.494,277.01l-218.521,-0l-0,-81.235c-0,-89.358 -14.216,-153.668 -42.648,-192.932c-28.433,-39.263 -74.872,-58.895 -139.318,-58.895c-75.277,0 -130.652,22.881 -166.124,68.644c-35.473,45.762 -53.209,113.322 -53.209,202.68c0,81.776 17.736,145.003 53.209,189.682c35.472,44.679 87.598,67.019 156.376,67.019c43.325,-0 80.422,-9.478 111.291,-28.432c30.87,-18.955 54.428,-46.304 70.675,-82.047l220.957,63.363c-33.035,80.151 -85.16,142.431 -156.376,186.839c-71.216,44.408 -149.065,66.612 -233.549,66.612Zm-290.82,-401.298l0,-164.094l581.639,0l0,164.094l-581.639,-0Z" style="fill-rule:nonzero;"/><path d="M3239.44,6859.62l-357.431,-1169.78l227.456,0l292.444,961.817l297.319,-961.817l227.456,0l-357.431,1169.78l-329.813,0Z" style="fill-rule:nonzero;"/><path d="M4219.13,6883.99c-62.822,0 -116.03,-12.049 -159.626,-36.149c-43.596,-24.1 -76.631,-56.323 -99.106,-96.669c-22.475,-40.347 -33.713,-84.89 -33.713,-133.631c0,-40.617 6.228,-77.714 18.684,-111.291c12.456,-33.577 32.63,-63.228 60.52,-88.952c27.891,-25.724 65.394,-47.251 112.51,-64.581c32.494,-11.915 71.215,-22.475 116.165,-31.682c44.95,-9.206 95.857,-18.007 152.721,-26.401c56.864,-8.394 119.415,-17.736 187.652,-28.026l-79.61,43.867c0,-51.99 -12.456,-90.171 -37.368,-114.541c-24.912,-24.37 -66.612,-36.556 -125.101,-36.556c-32.494,0 -66.342,7.853 -101.543,23.559c-35.202,15.705 -59.843,43.595 -73.924,83.671l-199.836,-63.363c22.204,-72.569 63.904,-131.6 125.101,-177.091c61.196,-45.491 144.597,-68.237 250.202,-68.237c77.444,-0 146.222,11.914 206.336,35.743c60.113,23.829 105.605,64.988 136.474,123.477c17.33,32.493 27.619,64.987 30.869,97.481c3.249,32.494 4.874,68.779 4.874,108.854l-0,536.148l-193.338,0l-0,-180.341l27.619,37.368c-42.783,59.031 -88.951,101.679 -138.504,127.945c-49.553,26.265 -112.239,39.398 -188.058,39.398Zm47.116,-173.842c40.617,0 74.871,-7.175 102.761,-21.527c27.891,-14.351 50.095,-30.733 66.613,-49.147c16.517,-18.413 27.755,-33.847 33.712,-46.303c11.373,-23.829 18.007,-51.584 19.902,-83.266c1.896,-31.681 2.844,-58.082 2.844,-79.203l64.987,16.247c-65.529,10.831 -118.602,19.902 -159.219,27.213c-40.618,7.311 -73.382,13.945 -98.294,19.903c-24.912,5.957 -46.845,12.456 -65.8,19.496c-21.663,8.665 -39.128,18.007 -52.396,28.026c-13.269,10.019 -23.017,20.985 -29.245,32.9c-6.228,11.914 -9.342,25.183 -9.342,39.805c0,20.038 5.01,37.232 15.029,51.584c10.019,14.351 24.235,25.318 42.648,32.9c18.413,7.582 40.346,11.372 65.8,11.372Z" style="fill-rule:nonzero;"/><path d="M5520.51,6859.62l-0,-414.296c-0,-20.038 -1.084,-45.627 -3.25,-76.767c-2.166,-31.14 -8.936,-62.415 -20.308,-93.825c-11.373,-31.411 -29.922,-57.677 -55.646,-78.798c-25.724,-21.121 -62.144,-31.681 -109.26,-31.681c-18.955,-0 -39.264,2.978 -60.926,8.935c-21.663,5.958 -41.972,17.466 -60.926,34.525c-18.955,17.059 -34.525,42.107 -46.71,75.142c-12.185,33.035 -18.278,76.902 -18.278,131.6l-126.726,-60.114c0,-69.32 14.081,-134.307 42.242,-194.963c28.162,-60.655 70.539,-109.666 127.132,-147.034c56.594,-37.368 127.945,-56.052 214.053,-56.052c68.779,0 124.831,11.644 168.156,34.931c43.325,23.287 77.037,52.802 101.137,88.546c24.099,35.743 41.294,72.975 51.584,111.697c10.289,38.722 16.517,74.059 18.683,106.011c2.167,31.952 3.25,55.24 3.25,69.862l-0,492.281l-224.207,0Zm-599.511,0l-0,-877.333l196.587,0l0,290.82l27.62,-0l0,586.513l-224.207,0Z" style="fill-rule:nonzero;"/><path d="M6326.35,6883.99c-90.983,0 -168.968,-20.308 -233.955,-60.926c-64.988,-40.617 -114.812,-95.856 -149.472,-165.718c-34.66,-69.862 -51.99,-148.659 -51.99,-236.392c-0,-88.817 18.007,-168.156 54.021,-238.017c36.014,-69.862 86.785,-124.831 152.315,-164.907c65.529,-40.075 142.972,-60.113 232.33,-60.113c103.439,-0 190.224,26.13 260.357,78.391c70.132,52.261 114.947,123.612 134.443,214.053l-220.958,58.489c-12.997,-45.491 -35.608,-80.964 -67.831,-106.417c-32.223,-25.454 -68.643,-38.18 -109.26,-38.18c-46.575,-0 -84.755,11.237 -114.541,33.712c-29.786,22.475 -51.719,53.073 -65.8,91.795c-14.08,38.722 -21.121,82.453 -21.121,131.194c0,76.36 16.924,138.234 50.772,185.62c33.848,47.387 84.078,71.081 150.69,71.081c49.824,-0 87.733,-11.373 113.728,-34.119c25.995,-22.745 45.492,-55.239 58.489,-97.481l225.832,47.116c-24.912,93.149 -72.028,164.906 -141.348,215.271c-69.32,50.366 -154.887,75.548 -256.701,75.548Z" style="fill-rule:nonzero;"/><path d="M7270.3,6883.99c-89.9,0 -169.103,-19.361 -237.611,-58.082c-68.508,-38.722 -122.123,-92.066 -160.844,-160.032c-38.722,-67.967 -58.083,-145.816 -58.083,-233.55c0,-95.856 18.955,-179.257 56.864,-250.202c37.91,-70.945 90.17,-126.049 156.783,-165.312c66.612,-39.263 143.243,-58.895 229.893,-58.895c92.066,-0 170.322,21.662 234.768,64.988c64.446,43.325 112.104,104.25 142.973,182.777c30.869,78.527 41.7,170.863 32.494,277.01l-218.521,-0l-0,-81.235c-0,-89.358 -14.216,-153.668 -42.648,-192.932c-28.432,-39.263 -74.871,-58.895 -139.317,-58.895c-75.278,0 -130.653,22.881 -166.125,68.644c-35.472,45.762 -53.209,113.322 -53.209,202.68c0,81.776 17.737,145.003 53.209,189.682c35.472,44.679 87.598,67.019 156.376,67.019c43.326,-0 80.423,-9.478 111.292,-28.432c30.869,-18.955 54.427,-46.304 70.674,-82.047l220.958,63.363c-33.036,80.151 -85.161,142.431 -156.377,186.839c-71.215,44.408 -149.065,66.612 -233.549,66.612Zm-290.82,-401.298l0,-164.094l581.64,0l-0,164.094l-581.64,-0Z" style="fill-rule:nonzero;"/><path d="M8206.12,6883.99c-80.693,0 -151.367,-20.308 -212.022,-60.926c-60.656,-40.617 -107.907,-95.856 -141.755,-165.718c-33.847,-69.862 -50.771,-148.659 -50.771,-236.392c-0,-89.358 17.194,-168.833 51.584,-238.424c34.389,-69.591 82.723,-124.424 145.003,-164.5c62.28,-40.075 135.391,-60.113 219.333,-60.113c83.401,-0 153.534,20.309 210.398,60.926c56.864,40.617 99.918,95.857 129.163,165.718c29.244,69.862 43.866,148.659 43.866,236.393c0,87.733 -14.757,166.53 -44.272,236.392c-29.516,69.862 -73.518,125.101 -132.007,165.718c-58.488,40.618 -131.329,60.926 -218.52,60.926Zm35.743,-196.587c49.282,-0 88.681,-11.102 118.196,-33.306c29.515,-22.204 50.772,-53.344 63.769,-93.42c12.998,-40.076 19.496,-86.65 19.496,-139.723c0,-53.074 -6.498,-99.648 -19.496,-139.724c-12.997,-40.075 -33.712,-71.215 -62.144,-93.419c-28.432,-22.205 -65.665,-33.307 -111.698,-33.307c-49.282,0 -89.764,12.05 -121.445,36.15c-31.682,24.099 -55.104,56.322 -70.268,96.669c-15.164,40.346 -22.746,84.89 -22.746,133.631c0,49.282 7.311,94.096 21.933,134.443c14.623,40.346 37.098,72.434 67.425,96.263c30.328,23.828 69.32,35.743 116.978,35.743Zm201.461,172.217l0,-601.135l-27.619,-0l-0,-568.642l222.582,0l0,1169.78l-194.963,0Z" style="fill-rule:nonzero;"/></g><circle id="Mask" cx="4800" cy="2969.58" r="2176.2" style="fill:none;"/><clipPath id="_clip2"><circle cx="4800" cy="2969.58" r="2176.2"/></clipPath><g clip-path="url(#_clip2)"><clipPath id="_clip3"><rect id="Logo" x="2623.8" y="793.378" width="4352.41" height="4352.41"/></clipPath><g clip-path="url(#_clip3)"><g id="Logo1" serif:id="Logo"><rect id="Background" x="2623.8" y="793.378" width="4352.41" height="4352.41" style="fill:url(#_Linear4);"/><circle id="Fill" cx="4800.87" cy="2972.93" r="1957.43" style="fill:#1c1b1b;"/><g id="Shape"><path id="Arc" d="M5370.49,2121.06c-10.373,0 -19.64,6.481 -23.199,16.224l-523.228,1432.48c-7.9,21.633 -38.498,21.633 -46.398,-0l-523.228,-1432.48c-3.559,-9.743 -12.828,-16.224 -23.199,-16.224l-176.966,0c-17.399,0 -29.343,17.505 -23,33.704l648.504,1656.29c3.707,9.464 12.833,15.694 23,15.694l196.178,-0c10.165,-0 19.291,-6.23 22.998,-15.694l648.504,-1656.29c6.343,-16.199 -5.603,-33.704 -22.997,-33.704l-176.969,0Z" style="fill:url(#_Linear5);fill-rule:nonzero;"/><path id="Diamond" d="M4851.47,3051.28c-9.37,18.738 -28.522,30.575 -49.473,30.575c-20.95,0 -40.103,-11.837 -49.472,-30.575c-101.788,-203.576 -332.908,-665.817 -426.064,-852.127c-8.573,-17.146 -7.656,-37.509 2.422,-53.816c10.078,-16.307 27.881,-26.232 47.051,-26.232c195.134,-0 656.993,-0 852.127,-0c19.169,-0 36.973,9.925 47.051,26.232c10.078,16.307 10.994,36.67 2.421,53.816c-93.155,186.31 -324.275,648.551 -426.063,852.127Z" style="fill:url(#_Linear6);"/></g></g></g></g><defs><linearGradient id="_Linear4" x1="0" y1="0" x2="1" y2="0" gradientUnits="userSpaceOnUse" gradientTransform="matrix(2.66481e-13,4351.97,-4351.97,2.66481e-13,4800,793.818)"><stop offset="0" style="stop-color:#817e46;stop-opacity:1"/><stop offset="1" style="stop-color:#6e0f5b;stop-opacity:1"/></linearGradient><linearGradient id="_Linear5" x1="0" y1="0" x2="1" y2="0" gradientUnits="userSpaceOnUse" gradientTransform="matrix(0,-1705.69,1705.69,-0,4800.87,3826.75)"><stop offset="0" style="stop-color:#fff1cd;stop-opacity:1"/><stop offset="1" style="stop-color:#fff;stop-opacity:1"/></linearGradient><linearGradient id="_Linear6" x1="0" y1="0" x2="1" y2="0" gradientUnits="userSpaceOnUse" gradientTransform="matrix(6.2971,868.973,-868.973,6.2971,4794.7,2185.77)"><stop offset="0" style="stop-color:#d21dad;stop-opacity:1"/><stop offset="1" style="stop-color:#f1ff00;stop-opacity:1"/></linearGradient></defs></svg>