<?xml version="1.0" encoding="UTF-8" standalone="no"?><!DOCTYPE svg PUBLIC "-//W3C//DTD SVG 1.1//EN" "http://www.w3.org/Graphics/SVG/1.1/DTD/svg11.dtd"><svg width="100%" height="100%" viewBox="0 0 1920 1920" version="1.1" xmlns="http://www.w3.org/2000/svg" xmlns:xlink="http://www.w3.org/1999/xlink" xml:space="preserve" xmlns:serif="http://www.serif.com/" style="fill-rule:evenodd;clip-rule:evenodd;stroke-linejoin:round;stroke-miterlimit:2;"><g id="Logo"><path id="Background" d="M960,-0c-530.2,-0 -960,429.8 -960,960c0,530.2 429.8,960 960,960c530.2,0 960,-429.8 960,-960c0,-530.2 -429.8,-960 -960,-960Z" style="fill:url(#_Linear1);fill-rule:nonzero;"/><path id="Fill" d="M960.4,98c476.898,-0 863.5,386.602 863.5,863.501c0,476.897 -386.602,863.499 -863.5,863.499c-476.898,-0 -863.501,-386.602 -863.501,-863.499c0,-476.899 386.603,-863.501 863.501,-863.501" style="fill:#1c1b1b;"/><g id="Shape"><path id="Arc" d="M1211.66,585.689c-4.577,0 -8.665,2.859 -10.235,7.157l-230.813,631.918c-3.486,9.543 -16.983,9.543 -20.469,-0l-230.813,-631.918c-1.57,-4.298 -5.658,-7.157 -10.234,-7.157l-78.067,0c-7.674,0 -12.944,7.723 -10.145,14.869l286.078,730.645c1.635,4.175 5.662,6.923 10.146,6.923l86.541,0c4.484,0 8.511,-2.748 10.145,-6.923l286.078,-730.645c2.799,-7.146 -2.473,-14.869 -10.145,-14.869l-78.067,0Z" style="fill:url(#_Linear2);fill-rule:nonzero;"/><path id="Diamond" d="M1148.84,584.825l-375.905,0c-3.785,0 -7.519,0.883 -10.906,2.575c-12.054,6.025 -16.943,20.682 -10.917,32.737l187.952,375.902c2.361,4.723 6.191,8.551 10.913,10.913c12.053,6.027 26.708,1.14 32.736,-10.913l187.95,-375.902c1.694,-3.389 2.576,-7.126 2.576,-10.914c-0.001,-13.476 -10.923,-24.398 -24.399,-24.398Z" style="fill:url(#_Linear3);fill-rule:nonzero;"/></g></g><defs><linearGradient id="_Linear1" x1="0" y1="0" x2="1" y2="0" gradientUnits="userSpaceOnUse" gradientTransform="matrix(0,1920,-1920,0,960,-2.39216e-05)"><stop offset="0" style="stop-color:#817e46;stop-opacity:1"/><stop offset="1" style="stop-color:#6e0f5b;stop-opacity:1"/></linearGradient><linearGradient id="_Linear2" x1="0" y1="0" x2="1" y2="0" gradientUnits="userSpaceOnUse" gradientTransform="matrix(0,-752.437,-752.437,-0,960.378,1338.13)"><stop offset="0" style="stop-color:#fff1cd;stop-opacity:1"/><stop offset="1" style="stop-color:#fff;stop-opacity:1"/></linearGradient><linearGradient id="_Linear3" x1="0" y1="0" x2="1" y2="0" gradientUnits="userSpaceOnUse" gradientTransform="matrix(2.77659,383.335,-383.335,2.77659,960.92,614.641)"><stop offset="0" style="stop-color:#d21dad;stop-opacity:1"/><stop offset="1" style="stop-color:#f1ff00;stop-opacity:1"/></linearGradient></defs></svg>