<?xml version="1.0" encoding="UTF-8" standalone="no"?><!DOCTYPE svg PUBLIC "-//W3C//DTD SVG 1.1//EN" "http://www.w3.org/Graphics/SVG/1.1/DTD/svg11.dtd"><svg width="100%" height="100%" viewBox="0 0 1920 1920" version="1.1" xmlns="http://www.w3.org/2000/svg" xmlns:xlink="http://www.w3.org/1999/xlink" xml:space="preserve" xmlns:serif="http://www.serif.com/" style="fill-rule:evenodd;clip-rule:evenodd;stroke-linejoin:round;stroke-miterlimit:2;"><g id="Logo"><path id="Fill" d="M960.383,97.984c476.574,0 863.491,386.918 863.491,863.491c-0,476.574 -386.917,863.491 -863.491,863.491c-476.574,0 -863.491,-386.917 -863.491,-863.491c-0,-476.573 386.917,-863.491 863.491,-863.491Zm22.324,898.056l187.951,-375.903c3.782,-7.564 3.378,-16.547 -1.068,-23.74c-4.446,-7.194 -12.299,-11.572 -20.756,-11.572l-375.903,-0c-8.456,-0 -16.31,4.378 -20.756,11.572c-4.445,7.193 -4.85,16.176 -1.068,23.74l187.952,375.903c4.133,8.266 12.582,13.488 21.824,13.488c9.242,-0 17.691,-5.222 21.824,-13.488Zm228.958,-410.351c-4.576,-0 -8.664,2.859 -10.234,7.157l-230.814,631.918c-3.485,9.543 -16.983,9.543 -20.468,-0l-230.814,-631.918c-1.57,-4.298 -5.659,-7.157 -10.234,-7.157l-78.066,-0c-7.675,-0 -12.944,7.722 -10.146,14.868l286.078,730.646c1.635,4.175 5.661,6.923 10.146,6.923l86.541,-0c4.484,-0 8.51,-2.748 10.145,-6.923l286.078,-730.646c2.798,-7.146 -2.472,-14.868 -10.145,-14.868l-78.067,-0Z"/></g></svg>