<?xml version="1.0" encoding="UTF-8" standalone="no"?><!DOCTYPE svg PUBLIC "-//W3C//DTD SVG 1.1//EN" "http://www.w3.org/Graphics/SVG/1.1/DTD/svg11.dtd"><svg width="100%" height="100%" viewBox="0 0 1920 1920" version="1.1" xmlns="http://www.w3.org/2000/svg" xmlns:xlink="http://www.w3.org/1999/xlink" xml:space="preserve" xmlns:serif="http://www.serif.com/" style="fill-rule:evenodd;clip-rule:evenodd;stroke-linejoin:round;stroke-miterlimit:2;"><g id="Logo"><g id="Shape"><path id="Arc" d="M1211.66,585.689c-4.576,-0 -8.664,2.859 -10.234,7.157l-230.814,631.918c-3.485,9.543 -16.983,9.543 -20.468,-0l-230.814,-631.918c-1.57,-4.298 -5.659,-7.157 -10.234,-7.157l-78.066,-0c-7.675,-0 -12.944,7.722 -10.146,14.868l286.078,730.646c1.635,4.175 5.661,6.923 10.146,6.923l86.541,-0c4.484,-0 8.51,-2.748 10.145,-6.923l286.078,-730.646c2.798,-7.146 -2.472,-14.868 -10.145,-14.868l-78.067,-0Z" style="fill:#fff;fill-rule:nonzero;"/><path id="Diamond" d="M982.707,996.04c-4.133,8.266 -12.582,13.488 -21.824,13.488c-9.242,-0 -17.691,-5.222 -21.824,-13.488c-44.902,-89.805 -146.858,-293.715 -187.952,-375.903c-3.782,-7.564 -3.377,-16.547 1.068,-23.74c4.446,-7.194 12.3,-11.572 20.756,-11.572c86.081,-0 289.823,-0 375.903,-0c8.457,-0 16.31,4.378 20.756,11.572c4.446,7.193 4.85,16.176 1.068,23.74c-41.094,82.188 -143.049,286.098 -187.951,375.903Z" style="fill:#fff;"/></g></g></svg>