<?xml version="1.0" encoding="UTF-8" standalone="no"?><!DOCTYPE svg PUBLIC "-//W3C//DTD SVG 1.1//EN" "http://www.w3.org/Graphics/SVG/1.1/DTD/svg11.dtd"><svg width="100%" height="100%" viewBox="0 0 800 800" version="1.1" xmlns="http://www.w3.org/2000/svg" xmlns:xlink="http://www.w3.org/1999/xlink" xml:space="preserve" xmlns:serif="http://www.serif.com/" style="fill-rule:evenodd;clip-rule:evenodd;stroke-linejoin:round;stroke-miterlimit:2;"><g id="Logo"></g><path id="Ring-Background" serif:id="Ring Background" d="M400,0c220.766,0 400,179.234 400,400c-0,220.766 -179.234,400 -400,400c-220.766,-0 -400,-179.234 -400,-400c0,-220.766 179.234,-400 400,-400Zm138.74,269.872c1.481,-3.382 1.157,-7.283 -0.863,-10.373c-2.021,-3.091 -5.464,-4.954 -9.156,-4.954l-14.165,0c-3.1,0 -5.907,1.834 -7.153,4.672l-100.25,228.328c-1.246,2.838 -4.053,4.671 -7.154,4.671c-3.1,0 -5.907,-1.833 -7.153,-4.671l-100.25,-228.328c-1.246,-2.838 -4.053,-4.672 -7.153,-4.672l-14.164,0c-3.693,0 -7.135,1.863 -9.156,4.954c-2.02,3.09 -2.344,6.991 -0.863,10.373l117.871,269.034c1.743,3.979 5.674,6.549 10.018,6.549l21.701,-0c4.344,-0 8.275,-2.57 10.018,-6.549l117.872,-269.034Zm-130.621,125.44l73.153,-126.704c1.675,-2.901 1.675,-6.474 -0,-9.375c-1.675,-2.901 -4.77,-4.688 -8.119,-4.688l-146.306,0c-3.349,0 -6.444,1.787 -8.119,4.688c-1.675,2.901 -1.675,6.474 0,9.375l73.153,126.704c1.675,2.901 4.77,4.688 8.119,4.688c3.349,0 6.444,-1.787 8.119,-4.688Z" style="fill:#fff;"/></svg>