<?xml version="1.0" encoding="UTF-8" standalone="no"?><!DOCTYPE svg PUBLIC "-//W3C//DTD SVG 1.1//EN" "http://www.w3.org/Graphics/SVG/1.1/DTD/svg11.dtd"><svg width="100%" height="100%" viewBox="0 0 2984 465" version="1.1" xmlns="http://www.w3.org/2000/svg" xmlns:xlink="http://www.w3.org/1999/xlink" xml:space="preserve" xmlns:serif="http://www.serif.com/" style="fill-rule:evenodd;clip-rule:evenodd;stroke-linejoin:round;stroke-miterlimit:2;"><g><path d="M0,454.507l0,-454.507l191.903,0c4.419,0 10.363,0.158 17.833,0.473c7.47,0.316 14.151,1 20.043,2.052c27.144,4.208 49.396,13.151 66.755,26.829c17.36,13.677 30.143,30.879 38.349,51.605c8.207,20.726 12.31,43.82 12.31,69.281c-0,38.086 -9.469,70.648 -28.407,97.687c-18.938,27.039 -48.607,43.715 -89.007,50.028l-37.876,2.525l-106.052,-0l0,154.027l-85.851,-0Zm256.291,-0l-89.638,-184.959l88.376,-17.044l98.476,202.003l-97.214,-0Zm-170.44,-234.197l102.264,-0c4.419,-0 9.259,-0.211 14.519,-0.632c5.261,-0.42 10.101,-1.262 14.519,-2.525c11.573,-3.156 20.516,-8.469 26.829,-15.939c6.312,-7.47 10.679,-15.781 13.099,-24.935c2.419,-9.153 3.629,-17.833 3.629,-26.039c0,-8.207 -1.21,-16.886 -3.629,-26.04c-2.42,-9.153 -6.787,-17.465 -13.099,-24.934c-6.313,-7.47 -15.256,-12.783 -26.829,-15.94c-4.418,-1.262 -9.258,-2.104 -14.519,-2.525c-5.26,-0.421 -10.1,-0.631 -14.519,-0.631l-102.264,-0l0,140.14Z" style="fill:#fff;fill-rule:nonzero;"/><path d="M581.39,463.976c-34.93,-0 -65.703,-7.523 -92.322,-22.568c-26.618,-15.045 -47.449,-35.771 -62.494,-62.179c-15.045,-26.407 -22.568,-56.655 -22.568,-90.743c0,-37.245 7.365,-69.649 22.094,-97.214c14.73,-27.565 35.035,-48.976 60.917,-64.231c25.882,-15.255 55.656,-22.883 89.323,-22.883c35.771,-0 66.177,8.417 91.217,25.25c25.04,16.834 43.557,40.506 55.551,71.017c11.994,30.511 16.202,66.387 12.625,107.63l-84.904,-0l-0,-31.563c-0,-34.72 -5.524,-59.707 -16.571,-74.962c-11.047,-15.256 -29.09,-22.884 -54.13,-22.884c-29.249,0 -50.764,8.891 -64.547,26.671c-13.782,17.781 -20.673,44.031 -20.673,78.75c-0,31.773 6.891,56.34 20.673,73.699c13.783,17.36 34.036,26.04 60.759,26.04c16.834,-0 31.247,-3.682 43.241,-11.047c11.994,-7.365 21.148,-17.991 27.46,-31.879l85.852,24.619c-12.836,31.143 -33.089,55.341 -60.759,72.595c-27.67,17.255 -57.918,25.882 -90.744,25.882Zm-112.995,-155.921l-0,-63.757l225.991,-0l-0,63.757l-225.991,-0Z" style="fill:#fff;fill-rule:nonzero;"/><path d="M885.657,454.507l-138.877,-454.507l88.377,0l113.626,373.706l115.521,-373.706l88.376,0l-138.877,454.507l-128.146,-0Z" style="fill:#fff;fill-rule:nonzero;"/><path d="M1266.31,463.976c-24.409,-0 -45.083,-4.682 -62.021,-14.046c-16.939,-9.363 -29.775,-21.883 -38.507,-37.56c-8.733,-15.676 -13.099,-32.983 -13.099,-51.921c0,-15.781 2.42,-30.195 7.26,-43.241c4.839,-13.046 12.677,-24.567 23.514,-34.561c10.837,-9.995 25.408,-18.36 43.715,-25.093c12.625,-4.629 27.67,-8.732 45.135,-12.31c17.465,-3.577 37.244,-6.996 59.338,-10.258c22.094,-3.261 46.398,-6.891 72.911,-10.889l-30.932,17.044c0,-20.2 -4.84,-35.035 -14.519,-44.504c-9.679,-9.468 -25.882,-14.203 -48.607,-14.203c-12.625,0 -25.776,3.051 -39.454,9.153c-13.677,6.102 -23.251,16.939 -28.722,32.51l-77.645,-24.619c8.627,-28.196 24.83,-51.132 48.607,-68.807c23.778,-17.676 56.182,-26.513 97.214,-26.513c30.09,-0 56.814,4.629 80.17,13.888c23.357,9.258 41.032,25.25 53.026,47.975c6.733,12.625 10.731,25.251 11.994,37.876c1.262,12.625 1.894,26.723 1.894,42.294l-0,208.316l-75.12,-0l-0,-70.07l10.731,14.519c-16.623,22.936 -34.561,39.506 -53.815,49.712c-19.253,10.205 -43.609,15.308 -73.068,15.308Zm18.306,-67.545c15.782,0 29.091,-2.788 39.928,-8.364c10.836,-5.576 19.464,-11.941 25.881,-19.096c6.418,-7.154 10.784,-13.151 13.099,-17.991c4.419,-9.258 6.996,-20.042 7.733,-32.352c0.736,-12.309 1.105,-22.567 1.105,-30.774l25.25,6.313c-25.461,4.208 -46.082,7.733 -61.863,10.574c-15.782,2.84 -28.512,5.418 -38.192,7.733c-9.679,2.314 -18.201,4.839 -25.566,7.575c-8.417,3.366 -15.203,6.996 -20.358,10.889c-5.155,3.893 -8.943,8.154 -11.363,12.783c-2.419,4.629 -3.629,9.784 -3.629,15.466c-0,7.785 1.946,14.466 5.839,20.042c3.893,5.576 9.416,9.837 16.57,12.783c7.155,2.946 15.677,4.419 25.566,4.419Z" style="fill:#fff;fill-rule:nonzero;"/><path d="M1771.95,454.507l-0,-160.971c-0,-7.786 -0.421,-17.728 -1.263,-29.827c-0.841,-12.099 -3.471,-24.251 -7.89,-36.456c-4.419,-12.204 -11.626,-22.409 -21.621,-30.616c-9.995,-8.206 -24.146,-12.309 -42.452,-12.309c-7.365,-0 -15.256,1.157 -23.672,3.472c-8.417,2.314 -16.308,6.786 -23.673,13.414c-7.364,6.628 -13.414,16.36 -18.148,29.196c-4.735,12.835 -7.102,29.879 -7.102,51.132l-49.238,-23.357c-0,-26.934 5.471,-52.184 16.412,-75.751c10.942,-23.567 27.408,-42.61 49.397,-57.129c21.988,-14.519 49.711,-21.778 83.168,-21.778c26.723,-0 48.502,4.524 65.335,13.572c16.834,9.048 29.933,20.516 39.296,34.403c9.364,13.888 16.045,28.354 20.043,43.399c3.998,15.045 6.418,28.775 7.259,41.19c0.842,12.415 1.263,21.463 1.263,27.144l-0,191.272l-87.114,-0Zm-232.935,-0l0,-340.88l76.383,-0l-0,112.995l10.731,0l-0,227.885l-87.114,-0Z" style="fill:#fff;fill-rule:nonzero;"/><path d="M2085.05,463.976c-35.351,-0 -65.651,-7.891 -90.902,-23.672c-25.25,-15.782 -44.609,-37.245 -58.076,-64.389c-13.466,-27.144 -20.2,-57.76 -20.2,-91.848c0,-34.509 6.997,-65.336 20.99,-92.48c13.992,-27.144 33.719,-48.501 59.18,-64.073c25.461,-15.571 55.551,-23.356 90.27,-23.356c40.191,-0 73.91,10.153 101.16,30.458c27.249,20.306 44.661,48.028 52.236,83.169l-85.851,22.725c-5.05,-17.675 -13.835,-31.458 -26.355,-41.348c-12.52,-9.889 -26.671,-14.834 -42.452,-14.834c-18.096,-0 -32.931,4.366 -44.504,13.098c-11.573,8.733 -20.095,20.622 -25.566,35.667c-5.471,15.045 -8.206,32.036 -8.206,50.974c-0,29.669 6.575,53.71 19.726,72.121c13.152,18.412 32.668,27.618 58.55,27.618c19.358,-0 34.088,-4.419 44.188,-13.257c10.1,-8.837 17.675,-21.462 22.725,-37.875l87.745,18.306c-9.679,36.193 -27.985,64.073 -54.919,83.642c-26.934,19.569 -60.18,29.354 -99.739,29.354Z" style="fill:#fff;fill-rule:nonzero;"/><path d="M2451.81,463.976c-34.93,-0 -65.704,-7.523 -92.322,-22.568c-26.618,-15.045 -47.45,-35.771 -62.495,-62.179c-15.045,-26.407 -22.567,-56.655 -22.567,-90.743c-0,-37.245 7.364,-69.649 22.094,-97.214c14.729,-27.565 35.035,-48.976 60.916,-64.231c25.882,-15.255 55.656,-22.883 89.324,-22.883c35.771,-0 66.177,8.417 91.217,25.25c25.04,16.834 43.557,40.506 55.55,71.017c11.994,30.511 16.203,66.387 12.626,107.63l-84.905,-0l0,-31.563c0,-34.72 -5.523,-59.707 -16.57,-74.962c-11.047,-15.256 -29.091,-22.884 -54.131,-22.884c-29.248,0 -50.764,8.891 -64.546,26.671c-13.783,17.781 -20.674,44.031 -20.674,78.75c0,31.773 6.891,56.34 20.674,73.699c13.782,17.36 34.035,26.04 60.759,26.04c16.833,-0 31.247,-3.682 43.241,-11.047c11.994,-7.365 21.147,-17.991 27.46,-31.879l85.851,24.619c-12.836,31.143 -33.089,55.341 -60.759,72.595c-27.67,17.255 -57.918,25.882 -90.743,25.882Zm-112.996,-155.921l0,-63.757l225.991,-0l0,63.757l-225.991,-0Z" style="fill:#fff;fill-rule:nonzero;"/><path d="M2815.42,463.976c-31.352,-0 -58.812,-7.891 -82.379,-23.672c-23.567,-15.782 -41.926,-37.245 -55.078,-64.389c-13.151,-27.144 -19.726,-57.76 -19.726,-91.848c-0,-34.719 6.68,-65.599 20.042,-92.637c13.362,-27.039 32.142,-48.344 56.34,-63.916c24.198,-15.571 52.605,-23.356 85.22,-23.356c32.405,-0 59.654,7.891 81.748,23.672c22.094,15.782 38.823,37.244 50.185,64.389c11.363,27.144 17.044,57.76 17.044,91.848c0,34.088 -5.734,64.704 -17.201,91.848c-11.468,27.144 -28.565,48.607 -51.29,64.389c-22.726,15.781 -51.027,23.672 -84.905,23.672Zm13.888,-76.383c19.148,0 34.456,-4.313 45.924,-12.94c11.468,-8.628 19.727,-20.727 24.777,-36.298c5.05,-15.571 7.575,-33.667 7.575,-54.288c0,-20.621 -2.525,-38.717 -7.575,-54.288c-5.05,-15.572 -13.099,-27.671 -24.146,-36.298c-11.047,-8.627 -25.513,-12.941 -43.399,-12.941c-19.148,0 -34.877,4.682 -47.186,14.046c-12.31,9.363 -21.411,21.883 -27.302,37.56c-5.892,15.676 -8.838,32.983 -8.838,51.921c-0,19.148 2.841,36.56 8.522,52.237c5.681,15.676 14.414,28.143 26.197,37.402c11.784,9.258 26.934,13.887 45.451,13.887Zm78.276,66.914l0,-233.566l-10.731,-0l-0,-220.941l86.482,0l0,454.507l-75.751,-0Z" style="fill:#fff;fill-rule:nonzero;"/></g></svg>